<?xml version="1.0" encoding="UTF-8"?>
<svg width="48px" height="48px" viewBox="0 0 48 48" version="1.1" xmlns="http://www.w3.org/2000/svg" xmlns:xlink="http://www.w3.org/1999/xlink">
    <!-- Generator: Sketch 56.3 (81716) - https://sketch.com -->
    <title>02 Sign Control/Pluse 2</title>
    <desc>Created with Sketch.</desc>
    <g id="02-Sign-Control/Pluse-2" stroke="none" stroke-width="1" fill="none" fill-rule="evenodd">
        <path d="M6,24 C6,33.9426171 14.0580588,42 24,42 C33.9426171,42 42,33.9419412 42,24 C42,14.0573829 33.9419412,6 24,6 C14.0573829,6 6,14.0580588 6,24 Z M4,24 C4,12.9535269 12.9527759,4 24,4 C35.0464731,4 44,12.9527759 44,24 C44,35.0464731 35.0472241,44 24,44 C12.9535269,44 4,35.0472241 4,24 Z M23,25 L15,25 C13.6666667,25 13.6666667,23 15,23 L23,23 L23,15 C23,13.6666667 25,13.6666667 25,15 L25,23 L33,23 C34.3333333,23 34.3333333,25 33,25 L25,25 L25,33 C25,34.3333333 23,34.3333333 23,33 L23,25 Z" id="Pluse-2" fill="#292F48" fill-rule="nonzero"></path>
    </g>
</svg>