<?xml version="1.0" encoding="UTF-8"?>
<svg width="48px" height="48px" viewBox="0 0 48 48" version="1.1" xmlns="http://www.w3.org/2000/svg" xmlns:xlink="http://www.w3.org/1999/xlink">
    <!-- Generator: Sketch 56.3 (81716) - https://sketch.com -->
    <title>02 Sign Control/Sort AZ</title>
    <desc>Created with Sketch.</desc>
    <g id="02-Sign-Control/Sort-AZ" stroke="none" stroke-width="1" fill="none" fill-rule="evenodd">
        <path d="M37.312458,33.3297889 C37.7036523,32.9399357 38.3368163,32.941023 38.7266695,33.3322173 C39.1165226,33.7234116 39.1154354,34.3565756 38.7242411,34.7464287 L33.4882863,39.9644327 C32.1204743,41.3275554 29.9070944,41.3253187 28.5420401,39.9594344 L23.3110279,34.7252414 C22.9206223,34.3345984 22.9208148,33.7014335 23.3114577,33.3110279 C23.7021007,32.9206223 24.3352656,32.9208148 24.7256712,33.3114577 L29.9566834,38.5456507 C30.5417067,39.1310297 31.4902981,39.1319883 32.0765032,38.5477929 L37.312458,33.3297889 Z M32,8 L32,40 C32,41.3333333 30,41.3333333 30,40 L30,8 C30,6.66666667 32,6.66666667 32,8 Z" id="Combined-Shape" fill="#292F48" fill-rule="nonzero"></path>
        <path d="M18.87,15.78 L16.49,9.66 L14.13,15.78 L18.87,15.78 Z M19.29,17.02 L13.71,17.02 L12.25,20.68 C12.1299994,21.0000016 11.91,21.16 11.59,21.16 C11.4033324,21.16 11.243334,21.093334 11.11,20.96 C10.976666,20.826666 10.91,20.6666676 10.91,20.48 C10.91,20.3599994 10.9299998,20.2600004 10.97,20.18 L15.85,7.84 C15.983334,7.5333318 16.1966652,7.38 16.49,7.38 C16.7966682,7.38 17.016666,7.5333318 17.15,7.84 L22.03,20.18 C22.0700002,20.2733338 22.09,20.3733328 22.09,20.48 C22.09,20.6666676 22.023334,20.826666 21.89,20.96 C21.756666,21.093334 21.590001,21.16 21.39,21.16 C21.0699984,21.16 20.8500006,21.0066682 20.73,20.7 L19.29,17.02 Z" id="A" stroke="#292F48" stroke-width="0.5" fill="#292F48" fill-rule="nonzero"></path>
        <path d="M20.75,41 L12.35,41 C12.1766658,41 12.0266673,40.9400006 11.9,40.82 C11.7733327,40.6999994 11.71,40.5466676 11.71,40.36 C11.71,40.226666 11.7499996,40.1000006 11.83,39.98 L19.27,28.82 L12.77,28.82 C12.5833324,28.82 12.4300006,28.7566673 12.31,28.63 C12.1899994,28.5033327 12.13,28.3533342 12.13,28.18 C12.13,28.0066658 12.1899994,27.8566673 12.31,27.73 C12.4300006,27.6033327 12.5833324,27.54 12.77,27.54 L20.45,27.54 C20.6366676,27.54 20.7899994,27.6033327 20.91,27.73 C21.0300006,27.8566673 21.09,28.0066658 21.09,28.18 C21.09,28.313334 21.0500004,28.4399994 20.97,28.56 L13.59,39.72 L20.75,39.72 C20.9233342,39.72 21.0733327,39.7799994 21.2,39.9 C21.3266673,40.0200006 21.39,40.1733324 21.39,40.36 C21.39,40.5466676 21.3266673,40.6999994 21.2,40.82 C21.0733327,40.9400006 20.9233342,41 20.75,41 Z" id="Z" stroke="#292F48" stroke-width="0.5" fill="#292F48" fill-rule="nonzero"></path>
    </g>
</svg>