<?xml version="1.0" encoding="UTF-8"?>
<svg width="48px" height="48px" viewBox="0 0 48 48" version="1.1" xmlns="http://www.w3.org/2000/svg" xmlns:xlink="http://www.w3.org/1999/xlink">
    <!-- Generator: Sketch 56.3 (81716) - https://sketch.com -->
    <title>02 Sign Control/Sort pink</title>
    <desc>Created with Sketch.</desc>
    <g id="02-Sign-Control/Sort-pink" stroke="none" stroke-width="1" fill="none" fill-rule="evenodd">
        <rect id="Rectangle" fill="#E5055E" x="0" y="0" width="48" height="48"></rect>
        <path d="M38.312458,28.3297889 C38.7036523,27.9399357 39.3368163,27.941023 39.7266695,28.3322173 C40.1165226,28.7234116 40.1154354,29.3565756 39.7242411,29.7464287 L34.4882863,34.9644327 C33.1204743,36.3275554 30.9070944,36.3253187 29.5420401,34.9594344 L24.3110279,29.7252414 C23.9206223,29.3345984 23.9208148,28.7014335 24.3114577,28.3110279 C24.7021007,27.9206223 25.3352656,27.9208148 25.7256712,28.3114577 L30.9566834,33.5456507 C31.5417067,34.1310297 32.4902981,34.1319883 33.0765032,33.5477929 L38.312458,28.3297889 Z M8.70732167,19.6916494 C8.31691609,20.0822924 7.68375114,20.0824849 7.29310817,19.6920793 C6.9024652,19.3016737 6.90227276,18.6685088 7.29267833,18.2778658 L12.5236905,13.0436728 C13.8887448,11.6777884 16.1021247,11.6755517 17.4699368,13.0386744 L22.7058915,18.2566784 C23.0970858,18.6465316 23.0981731,19.2796956 22.7083199,19.6708899 C22.3184668,20.0620842 21.6853027,20.0631714 21.2941085,19.6733183 L16.0581537,14.4553143 C15.4719485,13.8711189 14.5233571,13.8720774 13.9383339,14.4574564 L8.70732167,19.6916494 Z M15.9816504,13 L15.9816504,35 C15.9816504,36.3333333 13.9816504,36.3333333 13.9816504,35 L13.9816504,13 C13.9816504,11.6666667 15.9816504,11.6666667 15.9816504,13 Z M33,13 L33,35 C33,36.3333333 31,36.3333333 31,35 L31,13 C31,11.6666667 33,11.6666667 33,13 Z" id="Sort-2" fill="#FFFFFF" fill-rule="nonzero"></path>
    </g>
</svg>