<?xml version="1.0" encoding="UTF-8"?>
<svg width="38px" height="47px" viewBox="0 0 38 47" version="1.1" xmlns="http://www.w3.org/2000/svg" xmlns:xlink="http://www.w3.org/1999/xlink">
    <!-- Generator: Sketch 52.6 (67491) - http://www.bohemiancoding.com/sketch -->
    <title>all-tasks</title>
    <desc>Created with Sketch.</desc>
    <g id="Iconset" stroke="none" stroke-width="1" fill="none" fill-rule="evenodd">
        <g id="all-tasks" fill="currentColor" fill-rule="nonzero">
            <path d="M15.4428571,17.6214286 L15.4428571,16.6214286 L32.2285714,16.6214286 L32.2285714,17.6214286 L15.4428571,17.6214286 Z M6.04285714,7.88571429 L6.04285714,6.88571429 L19.4714286,6.88571429 L19.4714286,7.88571429 L6.04285714,7.88571429 Z M15.1071429,27.6928571 L15.1071429,26.6928571 L31.8928571,26.6928571 L31.8928571,27.6928571 L15.1071429,27.6928571 Z M1,1 L1,46 L36.6,46 L36.6,1 L1,1 Z M-4.97379915e-14,0 L37.6,0 L37.6,47 L-4.97379915e-14,47 L-4.97379915e-14,0 Z M15.1071429,37.7642857 L15.1071429,36.7642857 L31.8928571,36.7642857 L31.8928571,37.7642857 L15.1071429,37.7642857 Z M10.5785714,17.1214286 C10.5785714,15.9143852 9.59990048,14.9357143 8.39285714,14.9357143 C7.1858138,14.9357143 6.20714286,15.9143852 6.20714286,17.1214286 C6.20714286,18.3284719 7.1858138,19.3071429 8.39285714,19.3071429 C9.59990048,19.3071429 10.5785714,18.3284719 10.5785714,17.1214286 Z M11.5785714,17.1214286 C11.5785714,18.8807567 10.1521852,20.3071429 8.39285714,20.3071429 C6.63352905,20.3071429 5.20714286,18.8807567 5.20714286,17.1214286 C5.20714286,15.3621005 6.63352905,13.9357143 8.39285714,13.9357143 C10.1521852,13.9357143 11.5785714,15.3621005 11.5785714,17.1214286 Z M10.5785714,27.1928571 C10.5785714,25.9858138 9.59990048,25.0071429 8.39285714,25.0071429 C7.1858138,25.0071429 6.20714286,25.9858138 6.20714286,27.1928571 C6.20714286,28.3999005 7.1858138,29.3785714 8.39285714,29.3785714 C9.59990048,29.3785714 10.5785714,28.3999005 10.5785714,27.1928571 Z M11.5785714,27.1928571 C11.5785714,28.9521852 10.1521852,30.3785714 8.39285714,30.3785714 C6.63352905,30.3785714 5.20714286,28.9521852 5.20714286,27.1928571 C5.20714286,25.4335291 6.63352905,24.0071429 8.39285714,24.0071429 C10.1521852,24.0071429 11.5785714,25.4335291 11.5785714,27.1928571 Z M10.5785714,37.2642857 C10.5785714,36.0572424 9.59990048,35.0785714 8.39285714,35.0785714 C7.1858138,35.0785714 6.20714286,36.0572424 6.20714286,37.2642857 C6.20714286,38.4713291 7.1858138,39.45 8.39285714,39.45 C9.59990048,39.45 10.5785714,38.4713291 10.5785714,37.2642857 Z M11.5785714,37.2642857 C11.5785714,39.0236138 10.1521852,40.45 8.39285714,40.45 C6.63352905,40.45 5.20714286,39.0236138 5.20714286,37.2642857 C5.20714286,35.5049576 6.63352905,34.0785714 8.39285714,34.0785714 C10.1521852,34.0785714 11.5785714,35.5049576 11.5785714,37.2642857 Z" id="Combined-Shape"></path>
        </g>
    </g>
</svg>