<?xml version="1.0" encoding="UTF-8"?>
<svg width="48px" height="48px" viewBox="0 0 48 48" version="1.1" xmlns="http://www.w3.org/2000/svg" xmlns:xlink="http://www.w3.org/1999/xlink">
    <!-- Generator: Sketch 56.3 (81716) - https://sketch.com -->
    <title>03 Communication/Inbox</title>
    <desc>Created with Sketch.</desc>
    <g id="03-Communication/Inbox" stroke="none" stroke-width="1" fill="none" fill-rule="evenodd">
        <path d="M46,29 C46,29.5522847 45.5522847,30 45,30 C44.4477153,30 44,29.5522847 44,29 C44,24.2233575 42.6883897,20.1506674 40.0650308,16.7463424 C39.7279218,16.308877 39.8092767,15.6809604 40.2467421,15.3438514 C40.6842075,15.0067424 41.3121241,15.0880973 41.6492331,15.5255627 C44.5496983,19.2894878 46,23.7928293 46,29 Z M6.37768726,15.5032758 C6.71476495,15.0657863 7.34267573,14.9843864 7.78016525,15.3214641 C8.21765477,15.6585417 8.29905464,16.2864525 7.96197696,16.723942 C5.32028137,20.1525705 4,24.2327497 4,29 C4,29.5522847 3.55228475,30 3,30 C2.44771525,30 2,29.5522847 2,29 C2,23.8013695 3.4596067,19.2906213 6.37768726,15.5032758 Z M5.01861138,27.9999743 C4.46713372,27.999984 4.01976134,28.446448 4.01835889,28.9981735 C4.01081514,32.0629106 4.20192503,35.3091515 4.5923237,38.7556108 C4.75103523,40.1567243 5.86409525,41.2582018 7.26679191,41.4022505 C11.5936793,41.8465867 17.1730802,42.0694302 24,42.0694302 C30.8278614,42.0694302 36.4078593,41.8465252 40.7349965,41.4020668 C42.1367586,41.258086 43.2493826,40.1579121 43.409127,38.7578587 C43.8031745,35.3043192 44,32.0516016 44,28.9999745 C44,28.4476925 43.5522939,27.9999799 43.000009,27.9999745 C38.6667435,27.9998246 34.3334072,27.9998246 30,27.9998246 C30,31.3293477 27.3137085,34.0156392 24,34.0156392 C20.6862915,34.0156392 18,31.3293477 18,28.0156392 C13.6789343,27.9998246 9.35180471,27.9998246 5.01861138,27.9999743 Z M20,26.9998195 L20,28.0156392 C20,30.2247782 21.790861,32.0156392 24,32.0156392 C26.209139,32.0156392 28,30.2247782 28,28.0156392 L28,26.9998195 C28,26.447533 28.4477181,25.9998195 29.0000046,25.9998195 C33.6667666,25.9998195 38.3334464,25.9998195 43.0000363,25.9998195 C44.6568775,25.9998195 46,27.3431328 46,28.9999745 C46,32.1299326 45.7986137,35.4580224 45.3962342,38.9845861 C45.1299935,41.3180078 43.2756197,43.1516313 40.9393497,43.3915994 C36.5355003,43.8439371 30.8907162,44.0694302 24,44.0694302 C17.1102385,44.0694302 11.4660641,43.8439996 7.06248039,43.3917873 C4.72465106,43.151706 2.86955207,41.3159113 2.60503281,38.9807218 C2.20623441,35.4601091 2.01061874,32.1373319 2.01835832,29.0123403 C2.02202634,27.3393955 3.36414363,26.0000032 5.01857646,25.9998195 C9.68608495,25.9998195 14.3465579,25.9998195 18.9999954,25.9998195 C19.5522819,25.9998195 20,26.4475332 20,26.9998195 Z M8,26.6785455 C8,27.2308303 7.55228475,27.6785455 7,27.6785455 C6.44771525,27.6785455 6,27.2308303 6,26.6785455 L6,21.6427202 C6.01807167,19.888848 6.27898781,15.1138186 6.78389645,7.28047074 C6.94139598,4.83679524 8.84553718,2.86676249 11.2824447,2.626248 C15.5123714,2.2087686 19.7475067,2.00002302 23.9877323,2.00002302 C28.2334838,2.00002302 32.4792072,2.20931302 36.7247833,2.62787529 C39.1564171,2.86759996 41.0586219,4.82966837 41.222913,7.26756163 C41.590611,12.7237851 41.7738562,15.5032376 41.7829622,15.769983 C41.8511211,17.7665908 41.9115921,19.7661515 41.9647224,21.7950141 L41.9647224,26.9888106 C41.9647224,27.5410954 41.5170071,27.9888106 40.9647224,27.9888106 C40.4124376,27.9888106 39.9647224,27.5410954 39.9647224,26.9888106 L39.9650696,21.8213633 C39.9124229,19.8240259 39.8521086,17.8296441 39.7841265,15.838218 C39.7762832,15.6084592 39.5872827,12.7417112 39.227439,7.40203779 C39.1288644,5.9393016 37.987542,4.76206109 36.5285609,4.6182262 C32.3481143,4.20608491 28.1678772,4.00002302 23.9877323,4.00002302 C19.8131455,4.00002302 15.6435687,4.20553729 11.4788835,4.61657757 C10.0167384,4.76088632 8.87425486,5.94290479 8.77975502,7.40911201 C8.27773232,15.1976863 8.01743122,19.9614597 8,21.6529934 L8,26.6785455 Z M15,24 C14.4477153,24 14,23.5522847 14,23 C14,22.4477153 14.4477153,22 15,22 L33,22 C33.5522847,22 34,22.4477153 34,23 C34,23.5522847 33.5522847,24 33,24 L15,24 Z M15,18 C14.4477153,18 14,17.5522847 14,17 C14,16.4477153 14.4477153,16 15,16 L33,16 C33.5522847,16 34,16.4477153 34,17 C34,17.5522847 33.5522847,18 33,18 L15,18 Z M15,12 C14.4477153,12 14,11.5522847 14,11 C14,10.4477153 14.4477153,10 15,10 L21.9986052,10 C22.55089,10 22.9986052,10.4477153 22.9986052,11 C22.9986052,11.5522847 22.55089,12 21.9986052,12 L15,12 Z" id="Inbox" fill="#292F48" fill-rule="nonzero"></path>
    </g>
</svg>