<?xml version="1.0" encoding="UTF-8"?>
<svg width="48px" height="48px" viewBox="0 0 48 48" version="1.1" xmlns="http://www.w3.org/2000/svg" xmlns:xlink="http://www.w3.org/1999/xlink">
    <!-- Generator: Sketch 52.6 (67491) - http://www.bohemiancoding.com/sketch -->
    <title>attendee</title>
    <desc>Created with Sketch.</desc>
    <g id="Iconset" stroke="none" stroke-width="1" fill="none" fill-rule="evenodd">
        <g id="attendee">
            <path d="M46.75,24 L47.25,24 C47.25,24.6772607 47.2210393,25.3510345 47.1634521,26.020102 L46.6652939,25.9772251 C46.7216542,25.3224125 46.75,24.6629442 46.75,24 Z M46.409567,27.9432419 L46.9021057,28.029298 C46.7858406,28.6947357 46.6408037,29.3531985 46.4675628,30.0032562 L45.9844253,29.8744997 C46.1539154,29.2385165 46.2958143,28.5943004 46.409567,27.9432419 Z M45.3804754,31.7927872 L45.850234,31.9640381 C45.6190702,32.598144 45.3603724,33.2213333 45.0749954,33.8320352 L44.6220127,33.6203594 C44.9012182,33.0228643 45.1543173,32.4131621 45.3804754,31.7927872 Z M43.7109434,35.3676913 L44.1438424,35.6178882 C43.8065797,36.2014313 43.4440676,36.7700287 43.0574512,37.3220885 L42.6478961,37.0352705 C43.0262122,36.4950628 43.3809347,35.9386833 43.7109434,35.3676913 Z M41.4138479,38.6408572 L41.7963928,38.962819 C41.3622591,39.478643 40.905947,39.9755136 40.4288563,40.4519391 L40.0755496,40.0981391 C40.542442,39.6318978 40.9889987,39.1456497 41.4138479,38.6408572 Z M38.649018,41.4069762 L38.9711582,41.7893709 C38.4555038,42.2237729 37.9212742,42.6356737 37.3700268,43.0237894 L37.0821805,42.6149563 C37.6216132,42.235159 38.1444012,41.8320798 38.649018,41.4069762 Z M35.3936958,43.695891 L35.6444649,44.1284588 C35.0612489,44.4665619 34.4634777,44.7791783 33.8527485,45.0653037 L33.6406251,44.6125304 C34.2381693,44.3325821 34.8230471,44.0267086 35.3936958,43.695891 Z M31.7784852,45.3856838 L31.9494193,45.8555577 C31.3164421,46.0858267 30.6730409,46.2885096 30.0207288,46.462899 L29.8915937,45.9798626 C30.5297695,45.8092525 31.1592249,45.6109628 31.7784852,45.3856838 Z M27.908177,46.4156651 L27.9934598,46.9083383 C27.3311148,47.0229917 26.6623034,47.1090803 25.9883553,47.1661628 L25.9461571,46.6679466 C26.6056594,46.6120877 27.2600958,46.5278494 27.908177,46.4156651 Z M23.9022455,46.7497945 L23.9001429,47.2497901 C23.2229593,47.2469423 22.5493419,47.2151274 21.8805153,47.1546845 L21.9255177,46.6567138 C22.5800847,46.7158681 23.2393891,46.747007 23.9022455,46.7497945 Z M19.9604251,46.3925214 L19.8722438,46.884684 C19.2071096,46.7655113 18.5490477,46.6175643 17.8994943,46.4414183 L18.030358,45.9588474 C18.6658459,46.1311791 19.309667,46.2759244 19.9604251,46.3925214 Z M16.1133394,45.3460181 L15.9400098,45.8150137 C15.3073037,45.5811805 14.6856035,45.3198893 14.0764794,45.0320012 L14.290132,44.5799474 C14.8860854,44.8616108 15.4943325,45.1172478 16.1133394,45.3460181 Z M12.5469468,43.6613603 L12.2948719,44.0931684 C11.7124048,43.753144 11.145005,43.3879028 10.5942667,42.9985995 L10.8828788,42.5903066 C11.4217954,42.9712535 11.9770053,43.3286479 12.5469468,43.6613603 Z M9.28418657,41.3504871 L8.96058622,41.7316469 C8.44678811,41.2954382 7.95202589,40.8371489 7.47778592,40.3581827 L7.83308796,40.0063866 C8.29719063,40.4751145 8.7813759,40.9236066 9.28418657,41.3504871 Z M6.52994632,38.5738154 L6.14617264,38.8943115 C5.71399726,38.376809 5.30440421,37.8408279 4.91867109,37.2879279 L5.3287384,37.0018426 C5.70620302,37.5428907 6.10702271,38.0673913 6.52994632,38.5738154 Z M4.2547763,35.308171 L3.82112303,35.5570582 C3.48557045,34.9724019 3.17556685,34.3732933 2.89210902,33.7613288 L3.34580264,33.551181 C3.62313983,34.1499315 3.92645568,34.7361154 4.2547763,35.308171 Z M2.58032137,31.6843897 L2.10969456,31.8532399 C1.88226037,31.2193254 1.6824464,30.5750908 1.51095276,29.9220455 L1.99455565,29.7950485 C2.16233299,30.4339422 2.35781595,31.0642128 2.58032137,31.6843897 Z M1.56747097,27.8094587 L1.07442595,27.8925648 C0.962700821,27.2297306 0.879552171,26.5605233 0.82541557,25.8862672 L1.32381167,25.8462505 C1.37678852,26.5060624 1.45815089,27.1608931 1.56747097,27.8094587 Z M1.25081186,23.8057373 L0.750829341,23.8015568 C0.756490843,23.1244408 0.791126908,22.4509697 0.854393424,21.7823738 L1.35216983,21.8294763 C1.29025306,22.4838083 1.25635349,23.1429588 1.25081186,23.8057373 Z M1.6249278,19.8642324 L1.13315021,19.7739284 C1.25522712,19.1091217 1.40607876,18.4514847 1.5851228,17.8024597 L2.06711861,17.935426 C1.8919521,18.5703952 1.74436552,19.2137981 1.6249278,19.8642324 Z M2.68883944,16.01966 L2.22061571,15.844256 C2.45730512,15.2124367 2.72142131,14.5917309 3.01209511,13.9837123 L3.4631962,14.199369 C3.17880644,14.7942429 2.92040471,15.401519 2.68883944,16.01966 Z M4.38858199,12.4618199 L3.95787239,12.2078726 C4.30039549,11.6269333 4.66806398,11.0611599 5.05971661,10.5121452 L5.46675885,10.8025184 C5.08351172,11.3397503 4.72374073,11.893371 4.38858199,12.4618199 Z M6.7145784,9.20788731 L6.33484079,8.8826192 C6.77335429,8.3706721 7.23386758,7.87786188 7.71497122,7.40567129 L8.06520367,7.76251471 C7.59438389,8.22461197 7.14371499,8.70688739 6.7145784,9.20788731 Z M9.50166266,6.46718777 L9.1828168,6.08204193 C9.70211892,5.65213379 10.2398002,5.24488533 10.7942987,4.86156748 L11.07862,5.27285986 C10.5360093,5.64795977 10.0098466,6.04648392 9.50166266,6.46718777 Z M12.7775872,4.20580446 L12.5305873,3.77107344 C13.1165932,3.43812414 13.7169447,3.13077852 14.3300468,2.85002553 L14.5382197,3.30462873 C13.9383584,3.57931842 13.3509609,3.88003238 12.7775872,4.20580446 Z M16.4078458,2.54745497 L16.2410384,2.07610023 C16.8759806,1.85140098 17.521145,1.65436537 18.1750254,1.48568671 L18.2999195,1.96983696 C17.660208,2.13486051 17.0290276,2.32762536 16.4078458,2.54745497 Z M20.2872057,1.5513922 L20.2062304,1.05799277 C20.8694914,0.949140267 21.5390339,0.868871671 22.2135391,0.817616778 L22.2514243,1.31617942 C21.5913606,1.36633692 20.9361949,1.44488195 20.2872057,1.5513922 Z M24.292969,1.25184712 L24.2992765,0.75188691 C24.9762491,0.760427687 25.6494967,0.797944646 26.3177835,0.864088658 L26.2685364,1.36165747 C25.6145164,1.29692552 24.9555952,1.2602069 24.292969,1.25184712 Z M28.231819,1.64277969 L28.3242432,1.15139616 C28.9880461,1.27625064 29.6445961,1.42982224 30.2924497,1.61152325 L30.1574267,2.09294695 C29.5236051,1.91518144 28.8812679,1.76493432 28.231819,1.64277969 Z M32.0717944,2.72332553 L32.2492231,2.25586533 C32.8802058,2.49536053 33.4999678,2.76225502 34.106932,3.05567139 L33.8893175,3.50583125 C33.295473,3.21875719 32.6891184,2.95763646 32.0717944,2.72332553 Z M35.6230709,4.43888235 L35.8788851,4.00927894 C36.4582681,4.35428181 37.0223876,4.72435665 37.5696525,5.11833567 L37.2775254,5.52412101 C36.7420037,5.13859601 36.1899993,4.77646892 35.6230709,4.43888235 Z M38.8665071,6.77857884 L39.1934012,6.40024005 C39.703559,6.84102902 40.1944788,7.30374107 40.6646812,7.78696084 L40.306334,8.13565457 C39.8461823,7.66276377 39.3657566,7.20994278 38.8665071,6.77857884 Z M41.5952509,9.57741506 L41.981762,9.26022562 C42.4095643,9.78152399 42.8146118,10.3211162 43.195639,10.8774366 L42.7831192,11.1599739 C42.410262,10.6155823 42.0138928,10.0875512 41.5952509,9.57741506 Z M43.8428055,12.8635776 L44.2786065,12.6184706 C44.609017,13.2059413 44.9137586,13.8076569 45.1918496,14.422023 L44.7363412,14.6282076 C44.464257,14.027112 44.1660921,13.4383822 43.8428055,12.8635776 Z M45.4857427,16.5023196 L45.9578327,16.3376047 C46.1796995,16.9734983 46.3738666,17.6195114 46.5396477,18.2741417 L46.0549487,18.3968888 C45.8927596,17.7564428 45.7028011,17.1244318 45.4857427,16.5023196 Z M46.4646313,20.386209 L46.9583838,20.3074152 C47.0643016,20.9711366 47.1416253,21.6410468 47.1899312,22.3158323 L46.6912074,22.3515344 C46.6439352,21.6911879 46.568271,21.035655 46.4646313,20.386209 Z M28.9950068,17.3287771 C28.9837068,17.5799726 28.8951322,18.1545153 28.7467449,18.9964421 C28.7287421,19.0983327 28.7287421,19.0983327 28.7106597,19.1997374 C28.6495688,19.541609 28.5841623,19.8968593 28.5187608,20.2449019 C28.4795146,20.4537553 28.4489658,20.613929 28.431594,20.7039884 C27.8859536,23.5561357 26.058793,25.514421 23.5012143,25.514421 C20.9424659,25.514421 19.0809337,23.5198886 18.5707378,20.7034812 C18.5532417,20.6115118 18.5227161,20.4493758 18.4834963,20.2381901 C18.4181368,19.8862507 18.3527725,19.5275859 18.2917241,19.1832182 C18.2752017,19.0898503 18.2752017,19.0898503 18.2587401,18.9961038 C18.1116375,18.1566301 18.0224623,17.5824322 18.008465,17.3352355 C17.8361597,14.3342408 20.4019002,11.8520833 23.5012143,11.8520833 C26.594591,11.8520833 29.1292201,14.3092713 28.9950068,17.3287771 Z M23.5012143,12.8520833 C20.957059,12.8520833 18.8687059,14.872405 19.0068432,17.2783076 C19.0176265,17.4687423 19.1056274,18.0353787 19.2437317,18.8235019 C19.2600138,18.9162255 19.2600138,18.9162255 19.2763715,19.0086631 C19.3368959,19.3500753 19.4017882,19.7061499 19.4666854,20.0555998 C19.5056196,20.2652477 19.5358803,20.4259768 19.5539206,20.5209095 C19.9863521,22.9079466 21.4857029,24.514421 23.5012143,24.514421 C25.5166772,24.514421 26.9856942,22.9399811 27.4495496,20.5153401 C27.4667787,20.4260174 27.4970329,20.2673883 27.5359621,20.0602218 C27.6008527,19.7148979 27.6657383,19.3624768 27.7262533,19.0238283 C27.744138,18.9235321 27.744138,18.9235321 27.7619237,18.8228701 C27.9002588,18.0379778 27.9875258,17.4719436 27.9959991,17.2842384 C28.1040405,14.851769 26.0412859,12.8520833 23.5012143,12.8520833 Z M23.5003243,29.3915259 L15.3277966,30.9020681 C13.2238948,31.4219284 11.8571429,32.8881015 11.8571429,34.740855 L11.8571429,35.2142857 L10.8571429,35.2142857 L10.8571429,34.740855 C10.8571429,32.3889195 12.5676243,30.5540133 15.116929,29.9250041 L23.4090719,28.3914543 L23.5902493,28.3913293 L31.9696594,29.932592 C34.4982537,30.7133653 36.1428571,32.4406938 36.1428571,34.7352273 L36.1428571,35.2142857 L35.1428571,35.2142857 L35.1428571,34.7352273 C35.1428571,32.9380732 33.8224911,31.5512916 31.7318936,30.9021231 L23.5003243,29.3915259 Z" id="Combined-Shape" fill="currentColor" fill-rule="nonzero"></path>
            <g id="Group-14" transform="translate(10.000000, 11.000000)"></g>
        </g>
    </g>
</svg>