<?xml version="1.0" encoding="UTF-8"?>
<svg width="47px" height="47px" viewBox="0 0 47 47" version="1.1" xmlns="http://www.w3.org/2000/svg" xmlns:xlink="http://www.w3.org/1999/xlink">
    <!-- Generator: Sketch 52.6 (67491) - http://www.bohemiancoding.com/sketch -->
    <title>check-2</title>
    <desc>Created with Sketch.</desc>
    <g id="Iconset" stroke="none" stroke-width="1" fill="none" fill-rule="evenodd">
        <g id="check-2" fill="currentColor" fill-rule="nonzero">
            <path d="M33.5722793,15.6732708 L34.3292416,16.3267292 L20.1654295,32.7340031 L11.6464466,24.2150202 L12.3535534,23.5079134 L20.1116369,31.2659969 L33.5722793,15.6732708 Z M23.5,46 C35.9264069,46 46,35.9264069 46,23.5 C46,11.0735931 35.9264069,1 23.5,1 C11.0735931,1 1,11.0735931 1,23.5 C1,35.9264069 11.0735931,46 23.5,46 Z M23.5,47 C10.5213084,47 -3.55271368e-15,36.4786916 -3.55271368e-15,23.5 C-3.55271368e-15,10.5213084 10.5213084,-3.55271368e-15 23.5,-3.55271368e-15 C36.4786916,-3.55271368e-15 47,10.5213084 47,23.5 C47,36.4786916 36.4786916,47 23.5,47 Z" id="Combined-Shape"></path>
        </g>
    </g>
</svg>