<?xml version="1.0" encoding="UTF-8"?>
<svg width="48px" height="48px" viewBox="0 0 48 48" version="1.1" xmlns="http://www.w3.org/2000/svg" xmlns:xlink="http://www.w3.org/1999/xlink">
    <!-- Generator: Sketch 56.3 (81716) - https://sketch.com -->
    <title>02 Sign Control/Arrowupdown</title>
    <desc>Created with Sketch.</desc>
    <g id="02-Sign-Control/Arrowupdown" stroke="none" stroke-width="1" fill="none" fill-rule="evenodd">
        <path d="M17.7073217,11.6916494 C17.3169161,12.0822924 16.6837511,12.0824849 16.2931082,11.6920793 C15.9024652,11.3016737 15.9022728,10.6685088 16.2926783,10.2778658 L21.5236905,5.04367279 C22.8887448,3.67778844 25.1021247,3.67555175 26.4699368,5.03867444 L31.7058915,10.2566784 C32.0970858,10.6465316 32.0981731,11.2796956 31.7083199,11.6708899 C31.3184668,12.0620842 30.6853027,12.0631714 30.2941085,11.6733183 L25.0581537,6.4553143 C24.4719485,5.87111886 23.5233571,5.87207744 22.9383339,6.45745645 L17.7073217,11.6916494 Z M24.9816504,5 L24.9816504,17 C24.9816504,18.3333333 22.9816504,18.3333333 22.9816504,17 L22.9816504,5 C22.9816504,3.66666667 24.9816504,3.66666667 24.9816504,5 Z" id="Sort-2" fill="#292F48" fill-rule="nonzero" transform="translate(24.000000, 11.000000) scale(1, -1) translate(-24.000000, -11.000000) "></path>
        <path d="M17.7073217,37.6916494 C17.3169161,38.0822924 16.6837511,38.0824849 16.2931082,37.6920793 C15.9024652,37.3016737 15.9022728,36.6685088 16.2926783,36.2778658 L21.5236905,31.0436728 C22.8887448,29.6777884 25.1021247,29.6755517 26.4699368,31.0386744 L31.7058915,36.2566784 C32.0970858,36.6465316 32.0981731,37.2796956 31.7083199,37.6708899 C31.3184668,38.0620842 30.6853027,38.0631714 30.2941085,37.6733183 L25.0581537,32.4553143 C24.4719485,31.8711189 23.5233571,31.8720774 22.9383339,32.4574564 L17.7073217,37.6916494 Z M24.9816504,31 L24.9816504,43 C24.9816504,44.3333333 22.9816504,44.3333333 22.9816504,43 L22.9816504,31 C22.9816504,29.6666667 24.9816504,29.6666667 24.9816504,31 Z" id="Sort-2" fill="#292F48" fill-rule="nonzero"></path>
        <path d="M37,25 L11,25 C9.66666667,25 9.66666667,23 11,23 L37,23 C38.3333333,23 38.3333333,25 37,25 Z" id="Minus-3" fill="#292F48" fill-rule="nonzero"></path>
    </g>
</svg>