<?xml version="1.0" encoding="UTF-8"?>
<svg width="47px" height="47px" viewBox="0 0 47 47" version="1.1" xmlns="http://www.w3.org/2000/svg" xmlns:xlink="http://www.w3.org/1999/xlink">
    <!-- Generator: Sketch 52.6 (67491) - http://www.bohemiancoding.com/sketch -->
    <title>cross-2</title>
    <desc>Created with Sketch.</desc>
    <g id="Iconset" stroke="none" stroke-width="1" fill="none" fill-rule="evenodd">
        <g id="cross-2" fill="currentColor" fill-rule="nonzero">
            <g id="Group-13">
                <path d="M23.41415,22.7070432 L31.2674639,14.8537294 L31.9745706,15.5608361 L24.1212568,23.41415 L31.9745706,31.2674639 L31.2674639,31.9745706 L23.41415,24.1212568 L15.5607775,31.9746293 L14.8536707,31.2675225 L22.7070432,23.41415 L14.8536707,15.5607775 L15.5607775,14.8536707 L23.41415,22.7070432 Z M23.5,46 C35.9264069,46 46,35.9264069 46,23.5 C46,11.0735931 35.9264069,1 23.5,1 C11.0735931,1 1,11.0735931 1,23.5 C1,35.9264069 11.0735931,46 23.5,46 Z M23.5,47 C10.5213084,47 0,36.4786916 0,23.5 C0,10.5213084 10.5213084,0 23.5,0 C36.4786916,0 47,10.5213084 47,23.5 C47,36.4786916 36.4786916,47 23.5,47 Z" id="Combined-Shape"></path>
            </g>
        </g>
    </g>
</svg>