<?xml version="1.0" encoding="UTF-8"?>
<svg width="47px" height="47px" viewBox="0 0 47 47" version="1.1" xmlns="http://www.w3.org/2000/svg" xmlns:xlink="http://www.w3.org/1999/xlink">
    <!-- Generator: Sketch 52.6 (67491) - http://www.bohemiancoding.com/sketch -->
    <title>date</title>
    <desc>Created with Sketch.</desc>
    <g id="Iconset" stroke="none" stroke-width="1" fill="none" fill-rule="evenodd">
        <g id="date">
            <path d="M28.8137255,15.2647059 L28.8137255,16.5294118 L27.8137255,16.5294118 L27.8137255,15.2647059 L18.6176471,15.2647059 L18.6176471,16.5294118 L17.6176471,16.5294118 L17.6176471,15.2647059 L14.6960784,15.2647059 L14.6960784,18.9705882 L31.7352941,18.9705882 L31.7352941,15.2647059 L28.8137255,15.2647059 Z M28.8137255,14.2647059 L32.7352941,14.2647059 L32.7352941,28.8823529 C32.7352941,31.3239855 30.7553581,33.3039216 28.3137255,33.3039216 L18.1176471,33.3039216 C15.6760145,33.3039216 13.6960784,31.3239855 13.6960784,28.8823529 L13.6960784,14.2647059 L17.6176471,14.2647059 L17.6176471,13 L18.6176471,13 L18.6176471,14.2647059 L27.8137255,14.2647059 L27.8137255,13 L28.8137255,13 L28.8137255,14.2647059 Z M14.6960784,19.9705882 L14.6960784,28.8823529 C14.6960784,30.7717008 16.2282992,32.3039216 18.1176471,32.3039216 L28.3137255,32.3039216 C30.2030733,32.3039216 31.7352941,30.7717008 31.7352941,28.8823529 L31.7352941,19.9705882 L14.6960784,19.9705882 Z M45.9991707,23.2481131 L46.4991707,23.2481131 C46.4991707,23.9253738 46.47021,24.5991475 46.4126227,25.2682151 L45.9144646,25.2253382 C45.9708248,24.5705255 45.9991707,23.9110573 45.9991707,23.2481131 Z M45.6587376,27.191355 L46.1512763,27.2774111 C46.0350113,27.9428488 45.8899743,28.6013116 45.7167334,29.2513693 L45.233596,29.1226127 C45.403086,28.4866296 45.5449849,27.8424135 45.6587376,27.191355 Z M44.6296461,31.0409003 L45.0994047,31.2121512 C44.8682409,31.8462571 44.609543,32.4694464 44.324166,33.0801483 L43.8711833,32.8684725 C44.1503888,32.2709773 44.4034879,31.6612752 44.6296461,31.0409003 Z M42.9601141,34.6158044 L43.3930131,34.8660013 C43.0557504,35.4495443 42.6932383,36.0181418 42.3066218,36.5702016 L41.8970667,36.2833835 C42.2753829,35.7431759 42.6301054,35.1867964 42.9601141,34.6158044 Z M40.6630186,37.8889703 L41.0455635,38.210932 C40.6114298,38.7267561 40.1551177,39.2236267 39.6780269,39.7000522 L39.3247203,39.3462522 C39.7916126,38.8800109 40.2381693,38.3937628 40.6630186,37.8889703 Z M37.8981887,40.6550893 L38.2203288,41.037484 C37.7046745,41.471886 37.1704448,41.8837868 36.6191975,42.2719025 L36.3313511,41.8630694 C36.8707838,41.483272 37.3935719,41.0801929 37.8981887,40.6550893 Z M34.6428665,42.9440041 L34.8936355,43.3765719 C34.3104195,43.714675 33.7126483,44.0272914 33.1019192,44.3134168 L32.8897958,43.8606435 C33.48734,43.5806952 34.0722178,43.2748217 34.6428665,42.9440041 Z M31.0276559,44.6337969 L31.19859,45.1036708 C30.5656128,45.3339398 29.9222116,45.5366227 29.2698994,45.7110121 L29.1407643,45.2279757 C29.7789401,45.0573656 30.4083955,44.8590759 31.0276559,44.6337969 Z M27.1573477,45.6637782 L27.2426305,46.1564514 C26.5802854,46.2711048 25.9114741,46.3571934 25.237526,46.4142758 L25.1953278,45.9160597 C25.8548301,45.8602008 26.5092665,45.7759625 27.1573477,45.6637782 Z M23.1514162,45.9979076 L23.1493135,46.4979032 C22.4721299,46.4950554 21.7985125,46.4632405 21.1296859,46.4027976 L21.1746883,45.9048269 C21.8292554,45.9639811 22.4885597,45.99512 23.1514162,45.9979076 Z M19.2095958,45.6406345 L19.1214145,46.1327971 C18.4562802,46.0136243 17.7982184,45.8656774 17.148665,45.6895314 L17.2795286,45.2069605 C17.9150165,45.3792922 18.5588377,45.5240375 19.2095958,45.6406345 Z M15.3625101,44.5941312 L15.1891804,45.0631268 C14.5564743,44.8292936 13.9347741,44.5680024 13.32565,44.2801142 L13.5393026,43.8280605 C14.135256,44.1097239 14.7435031,44.3653609 15.3625101,44.5941312 Z M11.7961174,42.9094734 L11.5440425,43.3412815 C10.9615755,43.0012571 10.3941757,42.6360159 9.84343733,42.2467125 L10.1320495,41.8384197 C10.6709661,42.2193666 11.226176,42.5767609 11.7961174,42.9094734 Z M8.53335723,40.5986002 L8.20975688,40.97976 C7.69595877,40.5435513 7.20119655,40.085262 6.72695658,39.6062957 L7.08225862,39.2544997 C7.54636129,39.7232276 8.03054656,40.1717197 8.53335723,40.5986002 Z M5.77911698,37.8219285 L5.3953433,38.1424246 C4.96316792,37.6249221 4.55357487,37.0889409 4.16784174,36.536041 L4.57790906,36.2499557 C4.95537368,36.7910038 5.35619337,37.3155044 5.77911698,37.8219285 Z M3.50394696,34.5562841 L3.07029369,34.8051713 C2.73474111,34.220515 2.42473751,33.6214064 2.14127968,33.0094419 L2.5949733,32.7992941 C2.87231049,33.3980446 3.17562634,33.9842285 3.50394696,34.5562841 Z M1.82949203,30.9325028 L1.35886522,31.101353 C1.13143103,30.4674385 0.931617056,29.8232039 0.76012342,29.1701586 L1.24372631,29.0431616 C1.41150365,29.6820553 1.60698661,30.3123259 1.82949203,30.9325028 Z M0.816641628,27.0575718 L0.323596613,27.1406779 C0.21187148,26.4778437 0.12872283,25.8086364 0.0745862291,25.1343803 L0.572982324,25.0943636 C0.625959179,25.7541754 0.707321551,26.4090062 0.816641628,27.0575718 Z M0.499982524,23.0538503 L-4.62963001e-14,23.0496699 C0.00566150155,22.3725539 0.0402975665,21.6990828 0.103564083,21.0304869 L0.601340488,21.0775894 C0.539423716,21.7319214 0.505524146,22.3910719 0.499982524,23.0538503 Z M0.874098455,19.1123455 L0.382320869,19.0220415 C0.50439778,18.3572348 0.655249423,17.6995978 0.834293459,17.0505727 L1.31628927,17.1835391 C1.14112276,17.8185083 0.993536178,18.4619112 0.874098455,19.1123455 Z M1.9380101,15.267773 L1.46978637,15.0923691 C1.70647577,14.4605498 1.97059197,13.839844 2.26126576,13.2318254 L2.71236686,13.4474821 C2.4279771,14.042356 2.16957537,14.6496321 1.9380101,15.267773 Z M3.63775264,11.709933 L3.20704305,11.4559857 C3.54956615,10.8750464 3.91723464,10.3092729 4.30888727,9.76025829 L4.71592951,10.0506315 C4.33268238,10.5878634 3.97291139,11.1414841 3.63775264,11.709933 Z M5.96374906,8.4560004 L5.58401145,8.13073229 C6.02252495,7.61878519 6.48303824,7.12597497 6.96414188,6.65378438 L7.31437433,7.0106278 C6.84355455,7.47272506 6.39288565,7.95500048 5.96374906,8.4560004 Z M8.75083332,5.71530086 L8.43198746,5.33015502 C8.95128958,4.90024688 9.48897082,4.49299842 10.0434694,4.10968057 L10.3277906,4.52097295 C9.78517996,4.89607286 9.25901723,5.29459701 8.75083332,5.71530086 Z M12.0267578,3.45391755 L11.779758,3.01918653 C12.3657639,2.68623723 12.9661154,2.37889161 13.5792175,2.09813862 L13.7873903,2.55274182 C13.1875291,2.82743151 12.6001315,3.12814547 12.0267578,3.45391755 Z M15.6570165,1.79556806 L15.4902091,1.32421332 C16.1251512,1.09951406 16.7703156,0.902478455 17.4241961,0.733799799 L17.5490902,1.21795005 C16.9093787,1.3829736 16.2781983,1.57573845 15.6570165,1.79556806 Z M19.5363763,0.799505293 L19.455401,0.30610586 C20.118662,0.197253357 20.7882045,0.11698476 21.4627098,0.0657298673 L21.500595,0.564292512 C20.8405313,0.61445001 20.1853655,0.692995037 19.5363763,0.799505293 Z M23.5421396,0.499960213 L23.5484472,1.40998324e-14 C24.2254198,0.00854077606 24.8986673,0.0460577353 25.5669542,0.112201747 L25.5177071,0.609770558 C24.863687,0.545038609 24.2047658,0.508319994 23.5421396,0.499960213 Z M27.4809897,0.890892779 L27.5734138,0.39950925 C28.2372168,0.524363725 28.8937668,0.677935327 29.5416204,0.85963634 L29.4065974,1.34106004 C28.7727758,1.16329453 28.1304386,1.01304741 27.4809897,0.890892779 Z M31.320965,1.97143862 L31.4983938,1.50397842 C32.1293764,1.74347362 32.7491384,2.01036811 33.3561027,2.30378448 L33.1384881,2.75394434 C32.5446436,2.46687028 31.938289,2.20574955 31.320965,1.97143862 Z M34.8722415,3.68699544 L35.1280557,3.25739203 C35.7074387,3.6023949 36.2715583,3.97246974 36.8188231,4.36644876 L36.526696,4.7722341 C35.9911744,4.3867091 35.4391699,4.02458201 34.8722415,3.68699544 Z M38.1156778,6.02669193 L38.4425719,5.64835314 C38.9527296,6.08914211 39.4436494,6.55185416 39.9138518,7.03507393 L39.5555047,7.38376766 C39.095353,6.91087686 38.6149272,6.45805587 38.1156778,6.02669193 Z M40.8444215,8.82552815 L41.2309327,8.50833871 C41.6587349,9.02963708 42.0637825,9.56922925 42.4448097,10.1255497 L42.0322898,10.408087 C41.6594327,9.86369538 41.2630635,9.33566425 40.8444215,8.82552815 Z M43.0919761,12.1116907 L43.5277771,11.8665836 C43.8581876,12.4540544 44.1629292,13.05577 44.4410202,13.6701361 L43.9855118,13.8763207 C43.7134277,13.2752251 43.4152627,12.6864952 43.0919761,12.1116907 Z M44.7349133,15.7504326 L45.2070034,15.5857178 C45.4288702,16.2216113 45.6230372,16.8676245 45.7888184,17.5222548 L45.3041194,17.6450019 C45.1419303,17.0045559 44.9519718,16.3725449 44.7349133,15.7504326 Z M45.713802,19.6343221 L46.2075545,19.5555283 C46.3134722,20.2192497 46.390796,20.8891599 46.4391018,21.5639454 L45.9403781,21.5996475 C45.8931059,20.9393009 45.8174416,20.2837681 45.713802,19.6343221 Z" id="Combined-Shape" fill="currentColor" fill-rule="nonzero"></path>
            <g id="Group" transform="translate(13.000000, 13.000000)"></g>
        </g>
    </g>
</svg>