<?xml version="1.0" encoding="UTF-8"?>
<svg width="48px" height="48px" viewBox="0 0 48 48" version="1.1" xmlns="http://www.w3.org/2000/svg" xmlns:xlink="http://www.w3.org/1999/xlink">
    <!-- Generator: Sketch 56.3 (81716) - https://sketch.com -->
    <title>08 Location/Stopwatch</title>
    <desc>Created with Sketch.</desc>
    <g id="08-Location/Stopwatch" stroke="none" stroke-width="1" fill="none" fill-rule="evenodd">
        <path d="M38.8337363,7.75205014 L42.5857864,4 L40.2928932,1.70710678 C39.3500842,0.76429774 40.7642977,-0.649915823 41.7071068,0.292893219 L47.7071068,6.29289322 C48.6499158,7.23570226 47.2357023,8.64991582 46.2928932,7.70710678 L44,5.41421356 L40.2479542,9.16625938 C43.8208425,13.0776328 46,18.2839358 46,24 C46,36.1511265 36.1519526,46 24,46 C11.8488735,46 2,36.1519526 2,24 C2,12.5216735 10.7876792,3.09770964 22.0039331,2.08930196 C22.0013295,2.05988219 22,2.03009636 22,2 L22,1 C22,0.44771525 22.4477153,0 23,0 L25,0 C25.5522847,0 26,0.44771525 26,1 L26,2 C26,2.03009766 25.9986703,2.05988476 25.9960666,2.08930576 C30.9236385,2.53234067 35.3826852,4.59968648 38.8337363,7.75205014 Z M4,24 C4,35.0473456 12.9534054,44 24,44 C35.0473456,44 44,35.0465946 44,24 C44,12.9526544 35.0465946,4 24,4 C12.9526544,4 4,12.9534054 4,24 Z M25,20.1260175 C26.7252272,20.5700603 28,22.1361606 28,24 C28,25.8638394 26.7252272,27.4299397 25,27.8739825 L25,30 C25,31.3333333 23,31.3333333 23,30 L23,27.8739825 C21.2747728,27.4299397 20,25.8638394 20,24 C20,22.1361606 21.2747728,20.5700603 23,20.1260175 L23,10.0049416 C23,8.67160827 25,8.67160827 25,10.0049416 L25,20.1260175 L25,20.1260175 Z M24,26 C25.1045695,26 26,25.1045695 26,24 C26,22.8954305 25.1045695,22 24,22 C22.8954305,22 22,22.8954305 22,24 C22,25.1045695 22.8954305,26 24,26 Z" id="Stopwatch" fill="#292F48" fill-rule="nonzero"></path>
    </g>
</svg>