<?xml version="1.0" encoding="UTF-8"?>
<svg width="48px" height="48px" viewBox="0 0 48 48" version="1.1" xmlns="http://www.w3.org/2000/svg" xmlns:xlink="http://www.w3.org/1999/xlink">
    <!-- Generator: Sketch 56.3 (81716) - https://sketch.com -->
    <title>01 General/Trash</title>
    <desc>Created with Sketch.</desc>
    <g id="01-General/Trash" stroke="none" stroke-width="1" fill="none" fill-rule="evenodd">
        <path d="M40.0000043,15.9933168 L40.0000043,23.9675091 C40.0000043,29.4155692 39.8202659,34.4744293 39.4605594,39.1444684 C39.1985009,42.5468542 36.5212525,45.2644633 33.1231671,45.5774032 C30.0640537,45.8591261 27.0130456,46 23.9702364,46 C20.9386987,46 17.9072207,45.8601678 14.8758972,45.5805168 C11.4787458,45.267111 8.80230284,42.5503576 8.53971545,39.1489021 C8.17982993,34.4870843 8.00000426,29.4591327 8.00000426,24.0647121 L8.00000426,15.9933165 C7.60301928,15.972617 7.32658932,15.9015258 7.03998255,15.7482468 C6.70275111,15.5678935 6.43211076,15.2972531 6.25175741,14.9600217 C6.06464024,14.610143 6.00000426,14.2754304 6.00000426,13.7180574 L6.00000426,12 C6.00000426,9.7943167 7.78806386,8.00625764 9.9947911,8.00625764 L23.7705395,8.03501264 C24.0518974,8.03562071 24.0518974,8.03562071 24.1219648,8.03578093 C24.1798844,8.03586949 24.1798844,8.03586949 24.2378041,8.03577835 C24.3078714,8.035615 24.3078714,8.035615 24.5892294,8.03499436 L37.9978743,8.00625764 C40.2034787,8.00169634 41.9952874,9.78587904 42.0000043,11.9925498 L42.0000043,13.7180574 C42.0000043,14.2754304 41.935364,14.610143 41.7482468,14.9600217 C41.5678935,15.2972531 41.2972531,15.5678935 40.9600217,15.7482468 C40.6734139,15.9015264 40.396983,15.9726175 40.0000043,15.9933168 Z M10,16 L10,24.0647121 C10,29.4094686 10.1780027,34.3863307 10.5337823,38.994963 C10.7213447,41.424574 12.6330902,43.3651125 15.0596262,43.5889737 C18.0299323,43.8629957 21.0001035,44 23.9702364,44 C26.9516625,44 29.9414716,43.8619519 32.9397572,43.5858308 C35.3669614,43.3623023 37.279281,41.4211535 37.4664657,38.990877 C37.8220758,34.3740204 38,29.366104 38,23.9675091 L38,16 L10,16 Z M40.0000043,13.7180574 L40.0000043,12.0010663 C39.9976475,10.8947111 39.1031768,10.0040473 38.0021394,10.0063953 L24.5934944,10.0349898 C24.3126906,10.0356092 24.3126906,10.0356092 24.2417851,10.0357744 C24.1799291,10.0358708 24.1799291,10.0358708 24.118073,10.0357771 C24.0471675,10.0356152 24.0471675,10.0356152 23.7663637,10.0350083 L9.99790984,10.0062614 C8.89263336,10.0062614 8.00000426,10.8988862 8.00000426,12 L8.00000426,13.7180574 C8.00000426,13.8990544 8.00221451,13.9632499 8.0074078,13.9925965 C8.03675436,13.9977897 8.10094985,14 8.28194686,14 L39.7180574,14 C39.8990544,14 39.9632499,13.9977897 39.9925965,13.9925965 C39.9977897,13.9632499 40.0000043,13.8990544 40.0000043,13.7180574 Z M20.0000006,6.04900818 C20.0000006,6.60129293 19.5522844,7.04900715 19.0000006,7.04900715 C18.4477149,7.04900715 18.0000006,6.60129088 18.0000006,6.04900613 C18.0000006,3.5678727 19.6844382,2.35849062 22.4974709,2.07432414 C22.9882824,2.02474342 23.4891585,2 24.0000006,2 C24.5108473,2 25.0117166,2.02474158 25.5025228,2.07431913 C28.3155611,2.35848451 30.0000006,3.56786821 30.0000006,6.04900715 C30.0000006,6.6012919 29.5522854,7.04900715 29.0000006,7.04900715 C28.4477159,7.04900715 28.0000006,6.6012919 28.0000006,6.04900715 C28.0000006,4.81969936 27.2172661,4.25771636 25.3015161,4.06419257 C24.8781649,4.02142882 24.4443593,4 24.0000006,4 C23.5556503,4 23.1218414,4.02143028 22.6984836,4.06419698 C20.7827335,4.25772191 20.0000006,4.81970354 20.0000006,6.04900818 Z M20,36.88259 C20,37.4348748 19.5522847,37.88259 19,37.88259 C18.4477153,37.88259 18,37.4348748 18,36.88259 L18,19 C18,18.4477153 18.4477153,18 19,18 C19.5522847,18 20,18.4477153 20,19 L20,36.88259 Z M30,36.88259 C30,37.4348748 29.5522847,37.88259 29,37.88259 C28.4477153,37.88259 28,37.4348748 28,36.88259 L28,19 C28,18.4477153 28.4477153,18 29,18 C29.5522847,18 30,18.4477153 30,19 L30,36.88259 Z" id="Trash" fill="#292F48" fill-rule="nonzero"></path>
    </g>
</svg>