<?xml version="1.0" encoding="UTF-8"?>
<svg width="48px" height="48px" viewBox="0 0 48 48" version="1.1" xmlns="http://www.w3.org/2000/svg" xmlns:xlink="http://www.w3.org/1999/xlink">
    <!-- Generator: Sketch 56.3 (81716) - https://sketch.com -->
    <title>02 Sign Control/Switches 2</title>
    <desc>Created with Sketch.</desc>
    <g id="02-Sign-Control/Switches-2" stroke="none" stroke-width="1" fill="none" fill-rule="evenodd">
        <path d="M22,15 C22,12.241077 19.7571834,10 17,10 C14.241077,10 12,12.2428166 12,15 C12,17.758923 14.2428166,20 17,20 C19.758923,20 22,17.7571834 22,15 Z M24,15 C24,18.8614056 20.8638401,22 17,22 C13.1385944,22 10,18.8638401 10,15 C10,11.1385944 13.1361599,8 17,8 C20.8614056,8 24,11.1361599 24,15 Z M27,14 L43,14 C44.3333333,14 44.3333333,16 43,16 L27,16 C25.6666667,16 25.6666667,14 27,14 Z M5,14 L11,14 C12.3333333,14 12.3333333,16 11,16 L5,16 C3.66666667,16 3.66666667,14 5,14 Z M26,33 C26,35.7571834 28.241077,38 31,38 C33.7571834,38 36,35.758923 36,33 C36,30.2428166 33.758923,28 31,28 C28.2428166,28 26,30.241077 26,33 Z M24,33 C24,29.1361599 27.1385944,26 31,26 C34.8638401,26 38,29.1385944 38,33 C38,36.8638401 34.8614056,40 31,40 C27.1361599,40 24,36.8614056 24,33 Z M21,34 L5,34 C3.66666667,34 3.66666667,32 5,32 L21,32 C22.3333333,32 22.3333333,34 21,34 Z M43,34 L37,34 C35.6666667,34 35.6666667,32 37,32 L43,32 C44.3333333,32 44.3333333,34 43,34 Z" id="Switches-2" fill="#292F48" fill-rule="nonzero"></path>
    </g>
</svg>