<?xml version="1.0" encoding="UTF-8"?>
<svg width="48px" height="48px" viewBox="0 0 48 48" version="1.1" xmlns="http://www.w3.org/2000/svg" xmlns:xlink="http://www.w3.org/1999/xlink">
    <!-- Generator: Sketch 56.3 (81716) - https://sketch.com -->
    <title>02 Sign Control/Sign Out</title>
    <desc>Created with Sketch.</desc>
    <g id="02-Sign-Control/Sign-Out" stroke="none" stroke-width="1" fill="none" fill-rule="evenodd">
        <path d="M43.5831693,23 C43.5655484,22.9803843 43.5473198,22.9611209 43.5284835,22.9422342 L36.311709,15.706162 C35.9217065,15.3151166 35.9225519,14.6819522 36.3135972,14.2919497 C36.7046426,13.9019472 37.337807,13.9027926 37.7278095,14.293838 L44.9445841,21.5299102 C46.3085324,22.8975057 46.3067926,25.1114857 44.9406967,26.4769359 L37.7069396,33.7072739 C37.316323,34.0977059 36.6831581,34.0975562 36.2927261,33.7069396 C35.9022941,33.316323 35.9024438,32.6831581 36.2930604,32.2927261 L43.5268175,25.0623881 C43.5471929,25.0420223 43.5668601,25.0212161 43.5858191,25 L19,25 C18.4477153,25 18,24.5522847 18,24 C18,23.4477153 18.4477153,23 19,23 L43.5831693,23 L43.5831693,23 Z M29.9965825,33.0094402 C30.0277102,32.4580333 30.4999478,32.0362638 31.0513546,32.0673915 C31.6027615,32.0985192 32.0245311,32.5707567 31.9934034,33.1221636 C31.9598788,33.7160295 31.8480099,35.1131578 31.6568269,37.3288837 C31.3650769,40.7102459 28.6707508,43.3947212 25.2664955,43.7030252 C23.0791033,43.9011248 20.6988744,44 18.1253251,44 C15.5004225,44 13.0766227,43.8971396 10.853408,43.6910448 C7.44980822,43.3755183 4.76126705,40.6853095 4.47682488,37.3033173 C4.15875428,33.5214858 4,29.109167 4,24.0647121 C4,18.9501951 4.16319551,14.4647645 4.49014371,10.6068347 C4.7811546,7.17301813 7.5476353,4.46233148 11.0093771,4.21172081 C12.9615405,4.07039514 15.332751,4 18.1253251,4 C20.8582197,4 23.1875389,4.06741961 25.1154157,4.20274843 C28.5797167,4.44592537 31.3531046,7.1534553 31.6493109,10.5888436 C31.8472494,12.8845261 31.9633147,14.3390825 31.9984415,14.9675263 C32.0292633,15.5189504 31.6072318,15.9909539 31.0558078,16.0217756 C30.5043837,16.0525974 30.0323803,15.6305659 30.0015585,15.0791419 C29.9679965,14.4786948 29.8527335,13.0341931 29.6567039,10.7606503 C29.4453692,8.30959911 27.4609633,6.37231567 24.9753694,6.19783917 C23.0987673,6.06610961 20.8147079,6 18.1253251,6 C15.3775648,6 13.0529469,6.06901192 11.153788,6.20650037 C8.67005703,6.38630854 6.69062591,8.32581874 6.48299998,10.7757248 C6.16118568,14.5730756 6,19.003266 6,24.0647121 C6,29.0565519 6.15678354,33.4140972 6.46978856,37.1356992 C6.67272069,39.5485443 8.59620083,41.4732176 11.0380215,41.6995835 C13.1971394,41.8997365 15.5597457,42 18.1253251,42 C20.64087,42 22.9612913,41.9036092 25.0861052,41.711177 C27.5284265,41.4899899 29.4560819,39.5693822 29.6642304,37.1569561 C29.8535117,34.9632702 29.9646191,33.5756522 29.9965825,33.0094402 Z" id="Sign-Out" fill="#e5055e" fill-rule="nonzero" transform="translate(24.983204, 24.000000) rotate(-180.000000) translate(-24.983204, -24.000000) "></path>
    </g>
</svg>