<?xml version="1.0" encoding="UTF-8"?>
<svg width="32px" height="56px" viewBox="0 0 32 56" version="1.1" xmlns="http://www.w3.org/2000/svg" xmlns:xlink="http://www.w3.org/1999/xlink">
    <!-- Generator: Sketch 52.6 (67491) - http://www.bohemiancoding.com/sketch -->
    <title>move</title>
    <desc>Created with Sketch.</desc>
    <g id="Iconset" stroke="none" stroke-width="1" fill="none" fill-rule="evenodd">
        <g id="move" transform="translate(16.000000, 28.000000) rotate(-270.000000) translate(-16.000000, -28.000000) translate(-12.000000, 12.000000)" fill="currentColor" fill-rule="nonzero">
            <path d="M10.5,26 C10.5,23.5147815 8.48549681,21.5 6,21.5 C3.51450319,21.5 1.5,23.5147815 1.5,26 C1.5,28.4852185 3.51450319,30.5 6,30.5 C8.48549681,30.5 10.5,28.4852185 10.5,26 Z M11.5,26 C11.5,29.0374723 9.03781249,31.5 6,31.5 C2.96218751,31.5 0.5,29.0374723 0.5,26 C0.5,22.9625277 2.96218751,20.5 6,20.5 C9.03781249,20.5 11.5,22.9625277 11.5,26 Z M10.5,6 C10.5,3.51478151 8.48549681,1.5 6,1.5 C3.51450319,1.5 1.5,3.51478151 1.5,6 C1.5,8.48521849 3.51450319,10.5 6,10.5 C8.48549681,10.5 10.5,8.48521849 10.5,6 Z M11.5,6 C11.5,9.03747231 9.03781249,11.5 6,11.5 C2.96218751,11.5 0.5,9.03747231 0.5,6 C0.5,2.96252769 2.96218751,0.5 6,0.5 C9.03781249,0.5 11.5,2.96252769 11.5,6 Z M32.5,26 C32.5,23.5147815 30.4854968,21.5 28,21.5 C25.5145032,21.5 23.5,23.5147815 23.5,26 C23.5,28.4852185 25.5145032,30.5 28,30.5 C30.4854968,30.5 32.5,28.4852185 32.5,26 Z M33.5,26 C33.5,29.0374723 31.0378125,31.5 28,31.5 C24.9621875,31.5 22.5,29.0374723 22.5,26 C22.5,22.9625277 24.9621875,20.5 28,20.5 C31.0378125,20.5 33.5,22.9625277 33.5,26 Z M32.5,6 C32.5,3.51478151 30.4854968,1.5 28,1.5 C25.5145032,1.5 23.5,3.51478151 23.5,6 C23.5,8.48521849 25.5145032,10.5 28,10.5 C30.4854968,10.5 32.5,8.48521849 32.5,6 Z M33.5,6 C33.5,9.03747231 31.0378125,11.5 28,11.5 C24.9621875,11.5 22.5,9.03747231 22.5,6 C22.5,2.96252769 24.9621875,0.5 28,0.5 C31.0378125,0.5 33.5,2.96252769 33.5,6 Z M54.5,26 C54.5,23.5147815 52.4854968,21.5 50,21.5 C47.5145032,21.5 45.5,23.5147815 45.5,26 C45.5,28.4852185 47.5145032,30.5 50,30.5 C52.4854968,30.5 54.5,28.4852185 54.5,26 Z M55.5,26 C55.5,29.0374723 53.0378125,31.5 50,31.5 C46.9621875,31.5 44.5,29.0374723 44.5,26 C44.5,22.9625277 46.9621875,20.5 50,20.5 C53.0378125,20.5 55.5,22.9625277 55.5,26 Z M54.5,6 C54.5,3.51478151 52.4854968,1.5 50,1.5 C47.5145032,1.5 45.5,3.51478151 45.5,6 C45.5,8.48521849 47.5145032,10.5 50,10.5 C52.4854968,10.5 54.5,8.48521849 54.5,6 Z M55.5,6 C55.5,9.03747231 53.0378125,11.5 50,11.5 C46.9621875,11.5 44.5,9.03747231 44.5,6 C44.5,2.96252769 46.9621875,0.5 50,0.5 C53.0378125,0.5 55.5,2.96252769 55.5,6 Z" id="Combined-Shape"></path>
        </g>
    </g>
</svg>