<?xml version="1.0" encoding="UTF-8"?>
<svg width="48px" height="48px" viewBox="0 0 48 48" version="1.1" xmlns="http://www.w3.org/2000/svg" xmlns:xlink="http://www.w3.org/1999/xlink">
    <!-- Generator: Sketch 56.3 (81716) - https://sketch.com -->
    <title>04 File/Clipboard 3</title>
    <desc>Created with Sketch.</desc>
    <g id="04-File/Clipboard-3" stroke="none" stroke-width="1" fill="none" fill-rule="evenodd">
        <path d="M16.5916031,2.23968667 L19.9194396,0.829861643 C20.5468568,0.564058777 20.9128443,0.422585677 21.2739157,0.310878027 C21.6743184,0.187002114 22.0436686,0.11109323 22.4604718,0.0670169554 C22.8363326,0.0272702699 23.22845,0.0129376005 23.9098408,0.00975418405 L24.0938697,0.00889441201 C24.7658998,0.00575472801 25.1722603,0.0176597655 25.5572903,0.0563918261 C25.9848642,0.0994035944 26.3648308,0.176470131 26.7753742,0.303449086 C27.1450681,0.417793527 27.5239545,0.565155791 28.1416544,0.829884307 L31.4330093,2.24046497 L31.5324073,2.24047019 C33.3490781,2.34683127 35.1003936,2.4880063 36.8457067,2.6657627 C39.2299974,2.9085976 41.1066511,4.80910243 41.3193571,7.1962704 C41.7731636,12.2893032 42,17.5691671 42,23.0358695 C42,28.1536936 41.8011924,33.5024354 41.4036868,39.0821966 C41.1585812,42.5227274 38.4437448,45.2719201 35.0065691,45.5602695 C31.3695646,45.865385 27.7066626,46.0179348 24.0179348,46.0179348 C20.338062,46.0179348 16.6784095,45.8661165 13.0390488,45.5624696 C9.58893181,45.2746121 6.86749897,42.5078661 6.63664306,39.0534622 C6.21232321,32.7039235 6,27.3655638 6,23.0358695 C6,18.4318979 6.24005227,13.1650227 6.71979711,7.2339369 C6.91435298,4.82864259 8.79908176,2.90550747 11.1999645,2.66247382 C12.9452061,2.48581135 14.6951424,2.34546523 16.5090019,2.23968234 L16.5916031,2.23968667 Z M33.8464433,4.40286905 C33.9612862,4.77138894 34,5.14676343 34,5.80147397 L34,6.68404856 C34,7.40468812 33.882769,7.94716272 33.6146805,8.44844456 C33.3471736,8.94863896 32.948639,9.3471736 32.4484446,9.61468049 C31.9471627,9.88276896 31.4046881,10 30.6840486,10 L17.3159514,10 C16.5953119,10 16.0528373,9.88276896 15.5515554,9.61468049 C15.051361,9.3471736 14.6528264,8.94863896 14.3853195,8.44844456 C14.117231,7.94716272 14,7.40468812 14,6.68404856 L14,5.80827112 C14,5.15114375 14.0390918,4.77443079 14.154993,4.40450302 C13.2357981,4.47692722 12.3179299,4.55952796 11.4013872,4.6523052 C9.9608576,4.79812538 8.83001992,5.95200687 8.71328641,7.3951833 C8.23764224,13.2755726 8,18.4895704 8,23.0358695 C8,27.3161287 8.21062186,32.611712 8.63219196,38.9201033 C8.79708902,41.3875344 10.7409703,43.3637823 13.2053393,43.5693947 C16.7892831,43.868418 20.3934578,44.0179348 24.0179348,44.0179348 C27.6510063,44.0179348 31.2581283,43.867708 34.8393731,43.5672704 C37.2944986,43.3613065 39.2336674,41.3975976 39.4087428,38.9400755 C39.8029507,33.4066036 40,28.1051677 40,23.0358695 C40,17.6274577 39.7757054,12.4067567 39.3272496,7.37377447 C39.199626,5.94147371 38.0736336,4.80117066 36.6430593,4.65546972 C35.7126069,4.56070513 34.780402,4.47650487 33.8464433,4.40286905 L33.8464433,4.40286905 Z M31.9163626,4.93757833 C31.8710161,4.81461337 31.8065236,4.71680797 31.7113639,4.6266897 C31.5811076,4.50333432 31.4390686,4.41899699 30.9502649,4.20950967 L27.3538158,2.66817437 C26.7952508,2.42878936 26.4723768,2.30321231 26.1844059,2.21414438 C25.9011599,2.12653784 25.6521067,2.07602374 25.3571107,2.04634865 C25.0571939,2.01617854 24.7109075,2.00603348 24.1032135,2.00887259 L23.9191845,2.00973236 C23.299739,2.01262637 22.9643321,2.02488616 22.6707959,2.05592715 C22.3831628,2.0863439 22.1413447,2.13604236 21.8650294,2.22152832 C21.5830433,2.30876871 21.2699872,2.42978106 20.6996086,2.67141978 L17.0551027,4.21540056 C16.5642347,4.42335489 16.4215396,4.50739518 16.2905394,4.63076984 C16.1948217,4.72091581 16.1298856,4.8189487 16.0842191,4.94224812 C16.0217194,5.11099693 16,5.27517039 16,5.80827112 L16,6.68404856 C16,7.09473747 16.0478701,7.31625159 16.1489459,7.50524684 C16.2300532,7.6569043 16.3430957,7.7699468 16.4947532,7.8510541 C16.6837484,7.95212987 16.9052625,8 17.3159514,8 L30.6840486,8 C31.0947375,8 31.3162516,7.95212987 31.5052468,7.8510541 C31.6569043,7.7699468 31.7699468,7.6569043 31.8510541,7.50524684 C31.9521299,7.31625159 32,7.09473747 32,6.68404856 L32,5.80147397 C32,5.26967133 31.9784337,5.1058948 31.9163626,4.93757833 Z M21,22 L33,22 C34.3333333,22 34.3333333,24 33,24 L21,24 C19.6666667,24 19.6666667,22 21,22 Z M21,28 L33,28 C34.3333333,28 34.3333333,30 33,30 L21,30 C19.6666667,30 19.6666667,28 21,28 Z M21,16 L33,16 C34.3333333,16 34.3333333,18 33,18 L21,18 C19.6666667,18 19.6666667,16 21,16 Z M21,34 L32.9986052,34 C34.3319386,34 34.3319386,36 32.9986052,36 L21,36 C19.6666667,36 19.6666667,34 21,34 Z M15,22 L17,22 C18.3333333,22 18.3333333,24 17,24 L15,24 C13.6666667,24 13.6666667,22 15,22 Z M15,28 L17,28 C18.3333333,28 18.3333333,30 17,30 L15,30 C13.6666667,30 13.6666667,28 15,28 Z M15,16 L17,16 C18.3333333,16 18.3333333,18 17,18 L15,18 C13.6666667,18 13.6666667,16 15,16 Z M15,34 L16.9986052,34 C18.3319386,34 18.3319386,36 16.9986052,36 L15,36 C13.6666667,36 13.6666667,34 15,34 Z" id="Clipboard-3" fill="#292F48" fill-rule="nonzero"></path>
    </g>
</svg>