<?xml version="1.0" encoding="UTF-8"?>
<svg width="48px" height="48px" viewBox="0 0 48 48" version="1.1" xmlns="http://www.w3.org/2000/svg" xmlns:xlink="http://www.w3.org/1999/xlink">
    <!-- Generator: Sketch 56.3 (81716) - https://sketch.com -->
    <title>01 General/More 1</title>
    <desc>Created with Sketch.</desc>
    <g id="01-General/More-1" stroke="none" stroke-width="1" fill="none" fill-rule="evenodd">
        <path d="M24,28 C21.790861,28 20,26.209139 20,24 C20,21.790861 21.790861,20 24,20 C26.209139,20 28,21.790861 28,24 C28,26.209139 26.209139,28 24,28 Z M24,26 C25.1045695,26 26,25.1045695 26,24 C26,22.8954305 25.1045695,22 24,22 C22.8954305,22 22,22.8954305 22,24 C22,25.1045695 22.8954305,26 24,26 Z M12,28 C9.790861,28 8,26.209139 8,24 C8,21.790861 9.790861,20 12,20 C14.209139,20 16,21.790861 16,24 C16,26.209139 14.209139,28 12,28 Z M12,26 C13.1045695,26 14,25.1045695 14,24 C14,22.8954305 13.1045695,22 12,22 C10.8954305,22 10,22.8954305 10,24 C10,25.1045695 10.8954305,26 12,26 Z M36,28 C33.790861,28 32,26.209139 32,24 C32,21.790861 33.790861,20 36,20 C38.209139,20 40,21.790861 40,24 C40,26.209139 38.209139,28 36,28 Z M36,26 C37.1045695,26 38,25.1045695 38,24 C38,22.8954305 37.1045695,22 36,22 C34.8954305,22 34,22.8954305 34,24 C34,25.1045695 34.8954305,26 36,26 Z" id="More-1" fill="#292F48" fill-rule="nonzero"></path>
    </g>
</svg>