<?xml version="1.0" encoding="UTF-8"?>
<svg width="48px" height="48px" viewBox="0 0 48 48" version="1.1" xmlns="http://www.w3.org/2000/svg" xmlns:xlink="http://www.w3.org/1999/xlink">
    <!-- Generator: Sketch 56.3 (81716) - https://sketch.com -->
    <title>03 Communication/User 1</title>
    <desc>Created with Sketch.</desc>
    <g id="03-Communication/User-1" stroke="none" stroke-width="1" fill="none" fill-rule="evenodd">
        <path d="M24,42 C30.4715464,42 35.8818926,41.317263 40.2267135,39.9601884 C41.1796252,39.6625603 41.7671249,38.7078108 41.6033406,37.7230224 L40.7596278,32.6500234 C40.3851271,30.3982568 38.5331242,28.6860159 36.2589467,28.4889876 C32.4973915,28.1630972 28.4109361,28 24,28 C19.5890608,28 15.5026028,28.1630974 11.741048,28.4889881 C9.46687125,28.6860223 7.61487073,30.398263 7.24037052,32.6500266 L6.39665759,37.7230179 C6.23287397,38.7078023 6.82037155,39.6625517 7.77328217,39.9601871 C12.1180983,41.3172618 17.5284482,42 24,42 Z M24,44 C17.3401089,44 11.7338876,43.2925446 7.1770045,41.8692321 C5.27118447,41.2739617 4.09619006,39.3644642 4.42375716,37.3948961 L5.26747009,32.3219048 C5.79177032,29.1694362 8.38456992,26.7723003 11.5684176,26.4964523 C15.3897479,26.1653828 19.5334688,26 24,26 C28.4665281,26 32.6102464,26.1653826 36.4315744,26.4964517 C39.6154231,26.7722913 42.2082273,29.1694287 42.7325282,32.3219018 L43.5762411,37.3949009 C43.9038094,39.3644763 42.7288075,41.2739794 40.8229839,41.8692357 C36.2661028,43.2925458 30.6598854,44 24,44 Z M16,12 C16,16.4189747 19.5813257,20 24,20 C28.4189747,20 32,16.4186743 32,12 C32,7.58102534 28.4186743,4 24,4 C19.5810253,4 16,7.58132574 16,12 Z M14,12 C14,6.47679379 18.4764183,2 24,2 C29.5232062,2 34,6.47641829 34,12 C34,17.5232062 29.5235817,22 24,22 C18.4767938,22 14,17.5235817 14,12 Z" id="User-1" fill="#e5055e" fill-rule="nonzero"></path>
    </g>
</svg>