<?xml version="1.0" encoding="UTF-8"?>
<svg width="48px" height="48px" viewBox="0 0 48 48" version="1.1" xmlns="http://www.w3.org/2000/svg" xmlns:xlink="http://www.w3.org/1999/xlink">
    <!-- Generator: Sketch 56.3 (81716) - https://sketch.com -->
    <title>01 General/Print</title>
    <desc>Created with Sketch.</desc>
    <g id="01-General/Print" stroke="none" stroke-width="1" fill="none" fill-rule="evenodd">
        <path d="M6.96335862,35.3334481 C4.54980968,35.1761967 2.59484993,33.3139178 2.32066004,30.9108456 C2.10642531,29.033236 2,26.7309035 2,24 C2,21.4714553 2.09126923,19.1206677 2.27408758,16.9472466 C2.56563116,13.4812343 5.35789158,10.7550443 8.82989083,10.5465661 C14.8967277,10.1822794 19.9525884,10 24,10 C28.0474127,10 33.1032752,10.1822795 39.1701162,10.5465665 C42.6421113,10.7550508 45.4343674,13.481238 45.7259123,16.9472454 C45.9087308,19.1206672 46,21.471455 46,24 C46,26.7310371 45.8935643,29.0334612 45.679308,30.9111254 C45.4051078,33.3140322 43.45037,35.1762273 41.0369995,35.3336496 C40.5929711,35.3626133 40.2232728,35.3866157 39.9228203,35.4058187 C39.8296767,37.0120315 39.6522863,38.8974953 39.3909776,41.0645003 C39.1141471,43.3602532 37.2991978,45.1666852 35.0021676,45.4327155 C31.7344774,45.8111627 28.0674593,46 24,46 C19.9282584,46 16.2578007,45.810765 12.987516,45.4315199 C10.6940198,45.1655654 8.88087514,43.363798 8.60048007,41.0720195 C8.33913193,38.9359189 8.16292423,37.0475665 8.07218983,35.405223 C7.76731914,35.3857167 7.3990811,35.3618349 6.96335862,35.3334481 Z M7.09338538,33.3376793 C7.43869138,33.3601756 7.74158528,33.3798402 8.00195509,33.3966663 C8.00065177,33.2723823 8,33.1499645 8,33.0294118 L8,30.0252806 C8.00004847,28.9237867 8.89071541,28.0296568 9.99220564,28.025364 C14.3310405,28.0084545 19.0002987,28 24,28 C28.9996999,28 33.668957,28.0084545 38.0077844,28.025364 C39.1093077,28.0296498 40,28.9238179 40,30.0253488 L40,33.0294118 C40,33.1495521 39.9992773,33.2720722 39.9978321,33.3969737 C40.2547993,33.3803516 40.5578397,33.3606545 40.9068177,33.337891 C42.3548396,33.2434376 43.5276834,32.1261195 43.6922033,30.6843771 C43.8969396,28.8901422 44,26.6607335 44,24 C44,21.5254752 43.9108902,19.2303063 43.7329504,17.1148843 C43.5247041,14.639165 41.5302349,12.691888 39.0502392,12.5429707 C33.020303,12.1808996 28.0027143,12 24,12 C19.9972869,12 14.9796999,12.1808995 8.94976609,12.5429704 C6.46976656,12.6918834 4.47529496,14.6391618 4.26704953,17.1148851 C4.08910983,19.2303068 4,21.5254755 4,24 C4,26.6606048 4.10305039,28.8899266 4.30776705,30.6841172 C4.47228092,32.12596 5.64525808,33.2433286 7.09338538,33.3376793 Z M10,33 C10,35.0227847 10.1948281,37.6345737 10.585677,40.8291342 C10.7539141,42.2042018 11.841799,43.2852603 13.2178994,43.4448334 C16.4071913,43.8146859 20.0015972,44 24,44 C27.9942125,44 31.5852755,43.8150741 34.7720758,43.4459952 C36.150294,43.2863769 37.2392632,42.2025182 37.4053616,40.8250658 C37.8021965,37.5341566 38,34.9229459 38,33 L38,29.9959371 C33.6638588,29.979038 28.9971867,29.9705882 24,29.9705882 C19.0028119,29.9705882 14.3361387,29.979038 10,29.9959371 L10,33 Z M15,34 C14.4477153,34 14,33.5522847 14,33 C14,32.4477153 14.4477153,32 15,32 L33,32 C33.5522847,32 34,32.4477153 34,33 C34,33.5522847 33.5522847,34 33,34 L15,34 Z M15,38 C14.4477153,38 14,37.5522847 14,37 C14,36.4477153 14.4477153,36 15,36 L33,36 C33.5522847,36 34,36.4477153 34,37 C34,37.5522847 33.5522847,38 33,38 L15,38 Z M37,16 C36.4477153,16 36,15.5522847 36,15 C36,14.4477153 36.4477153,14 37,14 L39,14 C39.5522847,14 40,14.4477153 40,15 C40,15.5522847 39.5522847,16 39,16 L37,16 Z M10.6583209,8.07567768 C10.6157868,8.62632212 10.1349206,9.03822694 9.58427617,8.99569284 C9.03363173,8.95315875 8.62172692,8.47229254 8.66426101,7.9216481 C8.68559046,7.64551805 8.70743352,7.36756453 8.72978983,7.08779197 C8.92135754,4.69032694 10.7926923,2.76894822 13.1842695,2.51418363 C16.4041844,2.17117974 20.0090887,2 24,2 C27.9907742,2 31.5955679,2.17116798 34.8153978,2.5141482 C37.2071063,2.76891397 39.078504,4.69047535 39.2699298,7.08808522 C39.2928085,7.37464083 39.3151495,7.65927116 39.3369529,7.94197634 C39.3794211,8.49262586 38.9674588,8.97344282 38.4168093,9.01591108 C37.8661598,9.05837934 37.3853428,8.64641703 37.3428746,8.09576751 C37.3212101,7.81486305 37.2990099,7.53202693 37.276274,7.24725928 C37.1614185,5.80869328 36.0385801,4.65575667 34.6035546,4.50289717 C31.458172,4.16784717 27.9233146,4 24,4 C20.0765511,4 16.541586,4.16785866 13.3961224,4.50293157 C11.9611756,4.65579037 10.838376,5.80861636 10.7234352,7.24709733 C10.7012187,7.52512037 10.6795139,7.80131386 10.6583209,8.07567768 Z" id="Print" fill="#e5055e"></path>
    </g>
</svg>