<?xml version="1.0" encoding="UTF-8"?>
<svg width="48px" height="48px" viewBox="0 0 48 48" version="1.1" xmlns="http://www.w3.org/2000/svg" xmlns:xlink="http://www.w3.org/1999/xlink">
    <!-- Generator: Sketch 56.3 (81716) - https://sketch.com -->
    <title>02 Sign Control/Settings 1</title>
    <desc>Created with Sketch.</desc>
    <g id="02-Sign-Control/Settings-1" stroke="none" stroke-width="1" fill="none" fill-rule="evenodd">
        <path d="M24,0 C26.6445673,0 28.8096019,2.05312323 28.9881037,4.65236947 C30.1446866,4.97203398 31.0296701,5.25838895 31.652938,5.51672509 C32.2855954,5.7789531 33.1156511,6.20328277 34.1530535,6.79261716 C36.1172097,5.08029464 39.1003602,5.15923467 40.9705627,7.02943725 C42.8409633,8.89983778 42.9197221,11.8834218 41.2068391,13.8475701 C41.8131935,14.9173491 42.2483943,15.7730501 42.5153762,16.4249768 C42.7638287,17.0316578 43.0398571,17.8908273 43.3484708,19.0119541 C45.9473192,19.1908647 48,21.3557177 48,24 C48,26.6441453 45.9475319,28.808911 43.3488747,28.9880181 C43.0455164,30.0921836 42.7744042,30.9389443 42.5306439,31.5376335 C42.2614499,32.1987894 41.8210886,33.0667863 41.2065946,34.1521496 C42.9197295,36.1162943 42.8410523,39.1000732 40.9705627,40.9705627 C39.1005567,42.8405687 36.1178368,42.9196887 34.1536729,41.2079227 C33.1489385,41.7800126 32.3447557,42.1932459 31.7315059,42.4505122 C31.091533,42.7189893 30.1804827,43.0158915 28.9881635,43.3467592 C28.8100858,45.9464179 26.6448628,48 24,48 C21.3556005,48 19.1906728,45.9471373 19.0119303,43.3481253 C17.8765272,43.0350782 17.0069525,42.754904 16.3935744,42.5024847 C15.7494342,42.2374061 14.9040862,41.8065831 13.8473117,41.2070644 C11.8831601,42.9197151 8.89975576,42.8408813 7.02943725,40.9705627 C5.15964443,39.1007699 5.08032932,36.1185169 6.79149191,34.1543447 C6.23830914,33.1852545 5.83729636,32.4092287 5.58562017,31.8170744 C5.30592341,31.1589922 4.99739109,30.2195751 4.65418022,28.9882277 C2.05407683,28.8106073 0,26.6451813 0,24 C0,21.3553867 2.05319467,19.1903228 4.65250512,19.011887 C4.97367096,17.850453 5.26146771,16.9618729 5.52119451,16.336288 C5.78275089,15.7062963 6.20556353,14.8797941 6.7925435,13.846862 C5.0802969,11.8827047 5.15926149,8.89961302 7.02943725,7.02943725 C8.89926222,5.15961228 11.8815857,5.08032659 13.8457566,6.79158017 C14.8200661,6.2356191 15.6002265,5.8328009 16.1954793,5.5802897 C16.8509236,5.30224475 17.7862064,4.99542072 19.0117817,4.65404173 C19.1894696,2.05400389 21.3548656,0 24,0 Z M21,5 C21,5.69921453 20.5319005,6.3118722 19.8572394,6.49565565 C18.5529712,6.85089898 17.5882676,7.16196981 16.9765258,7.42147581 C16.4135912,7.66027737 15.6033037,8.08406249 14.5579054,8.68907001 C13.9504582,9.04061706 13.1825664,8.93992568 12.6862915,8.44365081 C11.5147186,7.27207794 9.61522369,7.27207794 8.44365081,8.44365081 C7.27207794,9.61522369 7.27207794,11.5147186 8.44365081,12.6862915 C8.9394996,13.1821403 9.04079419,13.9490785 8.69068075,14.5566823 C8.05651022,15.6571894 7.61445918,16.5103252 7.36832551,17.1031694 C7.12483349,17.6896507 6.83155417,18.611248 6.49537963,19.855124 C6.31278105,20.5307383 5.69985492,21 5,21 C3.34314575,21 2,22.3431458 2,24 C2,25.6568542 3.34314575,27 5,27 C5.69921226,27 6.3118965,27.4680587 6.49569118,28.1426093 C6.85264432,29.4522485 7.16531678,30.4207833 7.4262701,31.0347651 C7.66439379,31.5950325 8.08652962,32.4014983 8.68892543,33.4419929 C9.04059844,34.0494253 8.93996124,34.8173981 8.44365081,35.3137085 C7.27207794,36.4852814 7.27207794,38.3847763 8.44365081,39.5563492 C9.61522369,40.7279221 11.5147186,40.7279221 12.6862915,39.5563492 C13.1819824,39.0606583 13.9485645,38.9591224 14.5562002,39.3086727 C15.6790942,39.9546164 16.5496585,40.403986 17.1546919,40.6529712 C17.7308486,40.890073 18.6349055,41.1762256 19.8542796,41.504746 C20.5302778,41.6868733 21,42.2998973 21,43 C21,44.6568542 22.3431458,46 24,46 C25.6568542,46 27,44.6568542 27,43 C27,42.3004366 27.4687229,41.6876242 28.1438678,41.5044892 C29.4168057,41.1591669 30.3591496,40.8573712 30.9578042,40.6062277 C31.5362324,40.3635694 32.3687352,39.9302672 33.4427342,39.3100972 C34.0502512,38.9592905 34.817653,39.0602937 35.3137085,39.5563492 C36.4852814,40.7279221 38.3847763,40.7279221 39.5563492,39.5563492 C40.7279221,38.3847763 40.7279221,36.4852814 39.5563492,35.3137085 C39.0608728,34.8182321 38.9590421,34.0521296 39.3078853,33.4444004 C39.9679083,32.294629 40.4259858,31.4031287 40.678297,30.7834381 C40.9078257,30.2197024 41.185504,29.3367035 41.5048877,28.146739 C41.686451,27.4702772 42.2995959,27 43,27 C44.6568542,27 46,25.6568542 46,24 C46,22.3431458 44.6568542,21 43,21 C42.2997857,21 41.6867304,20.5300534 41.5048198,19.8538341 C41.1804711,18.6478714 40.8981967,17.7534242 40.6645655,17.1829346 C40.4140409,16.5711937 39.9606766,15.691066 39.3083095,14.5559598 C38.9590737,13.9482756 39.0607457,13.181895 39.5563492,12.6862915 C40.7279221,11.5147186 40.7279221,9.61522369 39.5563492,8.44365081 C38.3847763,7.27207794 36.4852814,7.27207794 35.3137085,8.44365081 C34.8179025,8.93945683 34.0510584,9.0407999 33.4434197,8.69080895 C32.3386958,8.05441692 31.4822783,7.61098238 30.8871405,7.36430576 C30.3026199,7.12202982 29.3843348,6.83009505 28.1450147,6.49532888 C27.4693402,6.31282256 27,5.69988904 27,5 C27,3.34314575 25.6568542,2 24,2 C22.3431458,2 21,3.34314575 21,5 Z M24,36 C17.372583,36 12,30.627417 12,24 C12,17.372583 17.372583,12 24,12 C30.627417,12 36,17.372583 36,24 C36,30.627417 30.627417,36 24,36 Z M24,34 C29.5228475,34 34,29.5228475 34,24 C34,18.4771525 29.5228475,14 24,14 C18.4771525,14 14,18.4771525 14,24 C14,29.5228475 18.4771525,34 24,34 Z" id="Settings-1" fill="#e5055e" fill-rule="nonzero"></path>
    </g>
</svg>