<?xml version="1.0" encoding="UTF-8"?>
<svg width="48px" height="48px" viewBox="0 0 48 48" version="1.1" xmlns="http://www.w3.org/2000/svg" xmlns:xlink="http://www.w3.org/1999/xlink">
    <!-- Generator: Sketch 56.3 (81716) - https://sketch.com -->
    <title>02 Sign Control/Power</title>
    <desc>Created with Sketch.</desc>
    <g id="02-Sign-Control/Power" stroke="none" stroke-width="1" fill="none" fill-rule="evenodd">
        <path d="M29.6867992,9.03956135 C29.1705799,8.84325538 28.9112388,8.26563949 29.1075448,7.74942015 C29.3038508,7.2332008 29.8814667,6.97385977 30.397686,7.17016574 C37.3259041,9.80480271 42,16.4625575 42,24 C42,33.9418197 33.9424957,42 24,42 C14.0581803,42 6,33.9424957 6,24 C6,16.4704485 10.6648787,9.81723265 17.5832296,7.17736216 C18.099226,6.98047079 18.6771357,7.2391565 18.874027,7.75515285 C19.0709184,8.2711492 18.8122327,8.84905888 18.2962363,9.04595025 C12.1467306,11.3924486 8,17.3066631 8,24 C8,32.8378886 15.1627122,40 24,40 C32.8378886,40 40,32.8372878 40,24 C40,17.2996364 35.845096,11.3814155 29.6867992,9.03956135 Z M23,15 L23,3 C23,1.66666667 25,1.66666667 25,3 L25,15 C25,16.3333333 23,16.3333333 23,15 Z" id="Power" fill="#292F48" fill-rule="nonzero"></path>
    </g>
</svg>