<?xml version="1.0" encoding="UTF-8"?>
<svg width="48px" height="48px" viewBox="0 0 48 48" version="1.1" xmlns="http://www.w3.org/2000/svg" xmlns:xlink="http://www.w3.org/1999/xlink">
    <!-- Generator: Sketch 56.3 (81716) - https://sketch.com -->
    <title>02 Sign Control/Sort op</title>
    <desc>Created with Sketch.</desc>
    <g id="02-Sign-Control/Sort-op" stroke="none" stroke-width="1" fill="none" fill-rule="evenodd">
        <g id="Group" transform="translate(6.000000, 7.000000)" fill="#e5055e" fill-rule="nonzero">
            <path d="M33.312458,26.3297889 C33.7036523,25.9399357 34.3368163,25.941023 34.7266695,26.3322173 C35.1165226,26.7234116 35.1154354,27.3565756 34.7242411,27.7464287 L29.4882863,32.9644327 C28.1204743,34.3275554 25.9070944,34.3253187 24.5420401,32.9594344 L19.3110279,27.7252414 C18.9206223,27.3345984 18.9208148,26.7014335 19.3114577,26.3110279 C19.7021007,25.9206223 20.3352656,25.9208148 20.7256712,26.3114577 L25.9566834,31.5456507 C26.5417067,32.1310297 27.4902981,32.1319883 28.0765032,31.5477929 L33.312458,26.3297889 Z M28,1 L28,33 C28,34.3333333 26,34.3333333 26,33 L26,1 C26,-0.333333333 28,-0.333333333 28,1 Z" id="Combined-Shape"></path>
            <path d="M19,6 L1,6 C-0.333333333,6 -0.333333333,4 1,4 L19,4 C20.3333333,4 20.3333333,6 19,6 Z" id="Line-2"></path>
            <path d="M19,14 L1,14 C-0.333333333,14 -0.333333333,12 1,12 L19,12 C20.3333333,12 20.3333333,14 19,14 Z" id="Line-2"></path>
            <path d="M19,22 L1,22 C-0.333333333,22 -0.333333333,20 1,20 L19,20 C20.3333333,20 20.3333333,22 19,22 Z" id="Line-2"></path>
        </g>
    </g>
</svg>