<?xml version="1.0" encoding="UTF-8"?>
<svg width="48px" height="48px" viewBox="0 0 48 48" version="1.1" xmlns="http://www.w3.org/2000/svg" xmlns:xlink="http://www.w3.org/1999/xlink">
    <!-- Generator: Sketch 56.3 (81716) - https://sketch.com -->
    <title>02 Sign Control/Sort 2</title>
    <desc>Created with Sketch.</desc>
    <g id="02-Sign-Control/Sort-2" stroke="none" stroke-width="1" fill="none" fill-rule="evenodd">
        <path d="M39.312458,36.3297889 C39.7036523,35.9399357 40.3368163,35.941023 40.7266695,36.3322173 C41.1165226,36.7234116 41.1154354,37.3565756 40.7242411,37.7464287 L35.4882863,42.9644327 C34.1204743,44.3275554 31.9070944,44.3253187 30.5420401,42.9594344 L25.3110279,37.7252414 C24.9206223,37.3345984 24.9208148,36.7014335 25.3114577,36.3110279 C25.7021007,35.9206223 26.3352656,35.9208148 26.7256712,36.3114577 L31.9566834,41.5456507 C32.5417067,42.1310297 33.4902981,42.1319883 34.0765032,41.5477929 L39.312458,36.3297889 Z M8.72567122,11.6916494 C8.33526565,12.0822924 7.7021007,12.0824849 7.31145773,11.6920793 C6.92081475,11.3016737 6.92062231,10.6685088 7.31102789,10.2778658 L12.5420401,5.04367279 C13.9070944,3.67778844 16.1204743,3.67555175 17.4882863,5.03867444 L22.7242411,10.2566784 C23.1154354,10.6465316 23.1165226,11.2796956 22.7266695,11.6708899 C22.3368163,12.0620842 21.7036523,12.0631714 21.312458,11.6733183 L16.0765032,6.4553143 C15.4902981,5.87111886 14.5417067,5.87207744 13.9566834,6.45745645 L8.72567122,11.6916494 Z M16,5 L16,37 C16,38.3333333 14,38.3333333 14,37 L14,5 C14,3.66666667 16,3.66666667 16,5 Z M34,11 L34,43 C34,44.3333333 32,44.3333333 32,43 L32,11 C32,9.66666667 34,9.66666667 34,11 Z" id="Sort-2" fill="#292F48" fill-rule="nonzero"></path>
    </g>
</svg>