<?xml version="1.0" encoding="UTF-8"?>
<svg width="524px" height="38px" viewBox="0 0 524 38" version="1.1" xmlns="http://www.w3.org/2000/svg" xmlns:xlink="http://www.w3.org/1999/xlink">
    <!-- Generator: Sketch 52.6 (67491) - http://www.bohemiancoding.com/sketch -->
    <title>taskmanager-logo</title>
    <desc>Created with Sketch.</desc>
    <g id="Iconset" stroke="none" stroke-width="1" fill="none" fill-rule="evenodd">
        <g id="taskmanager-logo">
            <path d="M22.4346514,1.32923077 L22.4346514,6.59692308 L7.02134857,6.59692308 L7.02134857,17.1323077 L20.03008,17.1323077 L20.03008,22.4246154 L7.02134857,22.4246154 L7.02134857,36.9230769 L0.50496,36.9230769 L0.50496,1.32923077 L22.4346514,1.32923077 Z M60.8597029,19.1261538 C60.8597029,21.7353977 60.4348995,24.1517838 59.58528,26.3753846 C58.7356605,28.5989855 57.541402,30.5230688 56.0024686,32.1476923 C54.4635352,33.7723158 52.6120337,35.0399954 50.4479086,35.9507692 C48.2837835,36.861543 45.8872512,37.3169231 43.25824,37.3169231 C40.6292288,37.3169231 38.228689,36.861543 36.0565486,35.9507692 C33.8844082,35.0399954 32.0248915,33.7723158 30.4779429,32.1476923 C28.9309942,30.5230688 27.7327281,28.5989855 26.8831086,26.3753846 C26.0334891,24.1517838 25.6086857,21.7353977 25.6086857,19.1261538 C25.6086857,16.51691 26.0334891,14.1005239 26.8831086,11.8769231 C27.7327281,9.65332222 28.9309942,7.72923889 30.4779429,6.10461538 C32.0248915,4.47999188 33.8844082,3.21231225 36.0565486,2.30153846 C38.228689,1.39076468 40.6292288,0.935384615 43.25824,0.935384615 C45.8872512,0.935384615 48.2837835,1.3948672 50.4479086,2.31384615 C52.6120337,3.23282511 54.4635352,4.50050474 56.0024686,6.11692308 C57.541402,7.73334142 58.7356605,9.65332222 59.58528,11.8769231 C60.4348995,14.1005239 60.8597029,16.51691 60.8597029,19.1261538 Z M54.2230857,19.1261538 C54.2230857,17.1733236 53.9706082,15.4215462 53.4656457,13.8707692 C52.9606832,12.3199922 52.2353114,11.0030823 51.2895086,9.92 C50.3437057,8.83691766 49.1935306,8.008208 47.8389486,7.43384615 C46.4843666,6.85948431 44.957479,6.57230769 43.25824,6.57230769 C41.559001,6.57230769 40.0281059,6.85948431 38.6655086,7.43384615 C37.3029113,8.008208 36.144721,8.83691766 35.1909029,9.92 C34.2370848,11.0030823 33.5036978,12.3199922 32.99072,13.8707692 C32.4777422,15.4215462 32.2212571,17.1733236 32.2212571,19.1261538 C32.2212571,21.0789841 32.4777422,22.8307615 32.99072,24.3815385 C33.5036978,25.9323154 34.2370848,27.2451228 35.1909029,28.32 C36.144721,29.3948772 37.3029113,30.2194843 38.6655086,30.7938462 C40.0281059,31.368208 41.559001,31.6553846 43.25824,31.6553846 C44.957479,31.6553846 46.4843666,31.368208 47.8389486,30.7938462 C49.1935306,30.2194843 50.3437057,29.3948772 51.2895086,28.32 C52.2353114,27.2451228 52.9606832,25.9323154 53.4656457,24.3815385 C53.9706082,22.8307615 54.2230857,21.0789841 54.2230857,19.1261538 Z M72.6421029,23.0153846 L72.6421029,36.9230769 L66.1738057,36.9230769 L66.1738057,1.32923077 L76.7779657,1.32923077 C79.1504881,1.32923077 81.1823306,1.57948468 82.8735543,2.08 C84.564778,2.58051532 85.9514003,3.28204677 87.0334629,4.18461538 C88.1155254,5.087184 88.909026,6.16614757 89.4139886,7.42153846 C89.9189511,8.67692935 90.1714286,10.0594796 90.1714286,11.5692308 C90.1714286,12.7671855 89.9991027,13.8994818 89.6544457,14.9661538 C89.3097888,16.0328258 88.812849,17.0010213 88.1636114,17.8707692 C87.5143739,18.7405172 86.7128581,19.5035865 85.75904,20.16 C84.8052219,20.8164135 83.719168,21.3415365 82.5008457,21.7353846 C83.3184041,22.2112844 84.023738,22.8923033 84.6168686,23.7784615 L93.3214171,36.9230769 L87.5023543,36.9230769 C86.9412848,36.9230769 86.4643829,36.8082063 86.0716343,36.5784615 C85.6788857,36.3487168 85.3462566,36.020515 85.0737371,35.5938462 L77.76384,24.1969231 C77.4913205,23.7702543 77.1907521,23.4666676 76.8621257,23.2861538 C76.5334993,23.1056401 76.0485823,23.0153846 75.40736,23.0153846 L72.6421029,23.0153846 Z M72.6421029,18.2646154 L76.6817829,18.2646154 C77.9001051,18.2646154 78.9621136,18.1087195 79.86784,17.7969231 C80.7735664,17.4851266 81.5189761,17.0543617 82.1040914,16.5046154 C82.6892067,15.954869 83.1260328,15.3025679 83.4145829,14.5476923 C83.7031329,13.7928167 83.8474057,12.9641071 83.8474057,12.0615385 C83.8474057,10.2564012 83.2663068,8.86974843 82.1040914,7.90153846 C80.9418761,6.93332849 79.1665186,6.44923077 76.7779657,6.44923077 L72.6421029,6.44923077 L72.6421029,18.2646154 Z M121.959863,1.32923077 L121.959863,6.76923077 L111.499977,6.76923077 L111.499977,36.9230769 L105.03168,36.9230769 L105.03168,6.76923077 L94.5237029,6.76923077 L94.5237029,1.32923077 L121.959863,1.32923077 Z M156.633783,36.9230769 L151.632274,36.9230769 C151.071205,36.9230769 150.610333,36.7794886 150.249646,36.4923077 C149.888958,36.2051268 149.628466,35.8482073 149.46816,35.4215385 L146.871223,28.16 L132.46784,28.16 L129.870903,35.4215385 C129.742658,35.7989762 129.490181,36.1435882 129.113463,36.4553846 C128.736745,36.767181 128.275873,36.9230769 127.730834,36.9230769 L122.70528,36.9230769 L136.363246,1.32923077 L142.975817,1.32923077 L156.633783,36.9230769 Z M134.126994,23.4830769 L145.212069,23.4830769 L140.980023,11.6430769 C140.787656,11.1179461 140.575254,10.4984651 140.342811,9.78461538 C140.110368,9.07076566 139.881936,8.2953888 139.657509,7.45846154 C139.433081,8.2953888 139.212664,9.07486818 138.996251,9.79692308 C138.779839,10.518978 138.567437,11.1507665 138.35904,11.6923077 L134.126994,23.4830769 Z" id="FORTA" fill="#E5055E"></path>
            <path d="M192.966857,1.64923077 L192.966857,5.66153846 L181.833691,5.66153846 L181.833691,36.9230769 L177.168823,36.9230769 L177.168823,5.66153846 L165.987566,5.66153846 L165.987566,1.64923077 L192.966857,1.64923077 Z M226.22208,36.9230769 L222.615223,36.9230769 C222.198428,36.9230769 221.861792,36.8164113 221.605303,36.6030769 C221.348814,36.3897425 221.15645,36.118976 221.028206,35.7907692 L217.80608,27.2738462 L202.344686,27.2738462 L199.12256,35.7907692 C199.010346,36.0861553 198.817982,36.3487168 198.545463,36.5784615 C198.272943,36.8082063 197.936307,36.9230769 197.535543,36.9230769 L193.928686,36.9230769 L207.70688,1.64923077 L212.443886,1.64923077 L226.22208,36.9230769 Z M203.643154,23.8276923 L216.507611,23.8276923 L211.097326,9.47692308 C210.744653,8.5907648 210.400002,7.48308357 210.06336,6.15384615 C209.887024,6.82667003 209.714698,7.44615102 209.546377,8.01230769 C209.378056,8.57846437 209.213746,9.07486966 209.05344,9.50153846 L203.643154,23.8276923 Z M248.223909,7.16307692 C248.079634,7.409232 247.927346,7.59384554 247.76704,7.71692308 C247.606734,7.84000062 247.39834,7.90153846 247.141851,7.90153846 C246.869332,7.90153846 246.552733,7.76205268 246.192046,7.48307692 C245.831358,7.20410117 245.374494,6.89641194 244.82144,6.56 C244.268386,6.22358806 243.603128,5.91589883 242.825646,5.63692308 C242.048164,5.35794732 241.106383,5.21846154 240.000274,5.21846154 C238.958288,5.21846154 238.036545,5.36204985 237.235017,5.64923077 C236.433489,5.93641169 235.764224,6.32615138 235.2272,6.81846154 C234.690176,7.31077169 234.285411,7.88922745 234.012891,8.55384615 C233.740372,9.21846486 233.604114,9.9364064 233.604114,10.7076923 C233.604114,11.6923126 233.840561,12.5087147 234.313463,13.1569231 C234.786364,13.8051314 235.411547,14.3589721 236.189029,14.8184615 C236.966511,15.277951 237.848178,15.6758958 238.834057,16.0123077 C239.819936,16.3487196 240.829846,16.6974341 241.863817,17.0584615 C242.897788,17.419489 243.907698,17.8256388 244.893577,18.2769231 C245.879456,18.7282074 246.761124,19.2984581 247.538606,19.9876923 C248.316088,20.6769265 248.94127,21.5220463 249.414171,22.5230769 C249.887073,23.5241076 250.12352,24.7548645 250.12352,26.2153846 C250.12352,27.7579564 249.867035,29.2061471 249.354057,30.56 C248.841079,31.9138529 248.091662,33.091277 247.105783,34.0923077 C246.119904,35.0933383 244.909615,35.8810228 243.47488,36.4553846 C242.040145,37.0297465 240.409061,37.3169231 238.581577,37.3169231 C236.35333,37.3169231 234.321487,36.9025682 232.485989,36.0738462 C230.65049,35.2451241 229.083526,34.1251353 227.785051,32.7138462 L229.131611,30.4492308 C229.259856,30.268717 229.416151,30.1169237 229.600503,29.9938462 C229.784854,29.8707686 229.989241,29.8092308 230.213669,29.8092308 C230.55031,29.8092308 230.935038,29.9938443 231.367863,30.3630769 C231.800688,30.7323095 232.341711,31.1384593 232.990949,31.5815385 C233.640186,32.0246176 234.425672,32.4307674 235.347429,32.8 C236.269186,33.1692326 237.395315,33.3538462 238.725851,33.3538462 C239.83196,33.3538462 240.817824,33.1979503 241.683474,32.8861538 C242.549124,32.5743574 243.282511,32.1353874 243.883657,31.5692308 C244.484803,31.0030741 244.945675,30.3261578 245.266286,29.5384615 C245.586897,28.7507653 245.7472,27.8728254 245.7472,26.9046154 C245.7472,25.8379434 245.510753,24.964106 245.037851,24.2830769 C244.56495,23.6020479 243.943775,23.0317972 243.174309,22.5723077 C242.404842,22.1128182 241.527182,21.7230785 240.541303,21.4030769 C239.555424,21.0830753 238.545514,20.7548735 237.511543,20.4184615 C236.477572,20.0820496 235.467662,19.6923099 234.481783,19.2492308 C233.495904,18.8061516 232.618244,18.2317984 231.848777,17.5261538 C231.07931,16.8205093 230.458136,15.9384668 229.985234,14.88 C229.512333,13.8215332 229.275886,12.5128283 229.275886,10.9538462 C229.275886,9.70666043 229.512333,8.50051865 229.985234,7.33538462 C230.458136,6.17025058 231.143432,5.13641477 232.041143,4.23384615 C232.938854,3.33127754 234.048953,2.60923348 235.371474,2.06769231 C236.693995,1.52615114 238.212868,1.25538462 239.928137,1.25538462 C241.851804,1.25538462 243.607123,1.56717637 245.194149,2.19076923 C246.781174,2.81436209 248.167796,3.71691717 249.354057,4.89846154 L248.223909,7.16307692 Z M261.184549,17.1076923 L262.939886,17.1076923 C263.549047,17.1076923 264.033964,17.0297444 264.394651,16.8738462 C264.755339,16.7179479 265.095983,16.4512839 265.416594,16.0738462 L276.8864,2.78153846 C277.239072,2.37128 277.579716,2.08000086 277.908343,1.90769231 C278.236969,1.73538375 278.657765,1.64923077 279.170743,1.64923077 L283.138286,1.64923077 L270.009326,16.8369231 C269.672684,17.2143609 269.356085,17.5343577 269.05952,17.7969231 C268.762955,18.0594885 268.446356,18.2728197 268.109714,18.4369231 C268.55857,18.5846161 268.951313,18.8061524 269.287954,19.1015385 C269.624596,19.3969246 269.977263,19.7661516 270.345966,20.2092308 L284.052023,36.9230769 L280.012343,36.9230769 C279.707762,36.9230769 279.451277,36.8984618 279.24288,36.8492308 C279.034483,36.7999998 278.854142,36.7343594 278.701851,36.6523077 C278.549561,36.570256 278.409296,36.4635904 278.281051,36.3323077 C278.152807,36.201025 278.024564,36.0615392 277.89632,35.9138462 L265.993691,21.9076923 C265.817355,21.7107682 265.653045,21.5425648 265.500754,21.4030769 C265.348464,21.263589 265.172131,21.1446159 264.971749,21.0461538 C264.771367,20.9476918 264.538927,20.8779489 264.274423,20.8369231 C264.009919,20.7958972 263.685305,20.7753846 263.300571,20.7753846 L261.184549,20.7753846 L261.184549,36.9230769 L256.543726,36.9230769 L256.543726,1.64923077 L261.184549,1.64923077 L261.184549,17.1076923 Z M305.765303,24.1723077 C305.989731,24.5661558 306.186102,24.9805106 306.354423,25.4153846 C306.522744,25.8502586 306.687054,26.2892286 306.84736,26.7323077 C307.007666,26.2728182 307.175984,25.8338482 307.35232,25.4153846 C307.528656,24.996921 307.729035,24.5743611 307.953463,24.1476923 L319.615634,2.46153846 C319.824032,2.08410068 320.040441,1.85435938 320.264869,1.77230769 C320.489296,1.690256 320.809903,1.64923077 321.226697,1.64923077 L324.665234,1.64923077 L324.665234,36.9230769 L320.577463,36.9230769 L320.577463,11.0030769 C320.577463,10.6584598 320.585478,10.2892327 320.601509,9.89538462 C320.617539,9.50153649 320.641585,9.09948923 320.673646,8.68923077 L308.8672,30.7446154 C308.466436,31.4830806 307.905375,31.8523077 307.184,31.8523077 L306.51072,31.8523077 C305.789345,31.8523077 305.228284,31.4830806 304.82752,30.7446154 L292.756571,8.61538462 C292.804663,9.04205342 292.840731,9.46051077 292.864777,9.87076923 C292.888823,10.2810277 292.900846,10.6584598 292.900846,11.0030769 L292.900846,36.9230769 L288.813074,36.9230769 L288.813074,1.64923077 L292.251611,1.64923077 C292.668406,1.64923077 292.989012,1.690256 293.21344,1.77230769 C293.437868,1.85435938 293.654277,2.08410068 293.862674,2.46153846 L305.765303,24.1723077 Z M361.407086,36.9230769 L357.800229,36.9230769 C357.383434,36.9230769 357.046797,36.8164113 356.790309,36.6030769 C356.53382,36.3897425 356.341456,36.118976 356.213211,35.7907692 L352.991086,27.2738462 L337.529691,27.2738462 L334.307566,35.7907692 C334.195352,36.0861553 334.002988,36.3487168 333.730469,36.5784615 C333.457949,36.8082063 333.121312,36.9230769 332.720549,36.9230769 L329.113691,36.9230769 L342.891886,1.64923077 L347.628891,1.64923077 L361.407086,36.9230769 Z M338.82816,23.8276923 L351.692617,23.8276923 L346.282331,9.47692308 C345.929659,8.5907648 345.585007,7.48308357 345.248366,6.15384615 C345.07203,6.82667003 344.899704,7.44615102 344.731383,8.01230769 C344.563062,8.57846437 344.398751,9.07486966 344.238446,9.50153846 L338.82816,23.8276923 Z M368.163931,1.64923077 C368.580726,1.64923077 368.889309,1.70256357 369.089691,1.80923077 C369.290073,1.91589797 369.518505,2.13333169 369.774994,2.46153846 L389.732937,29.0461538 C389.684845,28.619485 389.652785,28.2051302 389.636754,27.8030769 C389.620724,27.4010236 389.612709,27.0112839 389.612709,26.6338462 L389.612709,1.64923077 L393.70048,1.64923077 L393.70048,36.9230769 L391.344,36.9230769 C390.975297,36.9230769 390.666714,36.8574366 390.41824,36.7261538 C390.169766,36.5948711 389.925304,36.3733349 389.684846,36.0615385 L369.750949,9.50153846 C369.78301,9.91179692 369.807055,10.3138442 369.823086,10.7076923 C369.839116,11.1015404 369.847131,11.4625625 369.847131,11.7907692 L369.847131,36.9230769 L365.75936,36.9230769 L365.75936,1.64923077 L368.163931,1.64923077 Z M430.466377,36.9230769 L426.85952,36.9230769 C426.442726,36.9230769 426.106089,36.8164113 425.8496,36.6030769 C425.593111,36.3897425 425.400747,36.118976 425.272503,35.7907692 L422.050377,27.2738462 L406.588983,27.2738462 L403.366857,35.7907692 C403.254643,36.0861553 403.062279,36.3487168 402.78976,36.5784615 C402.517241,36.8082063 402.180604,36.9230769 401.77984,36.9230769 L398.172983,36.9230769 L411.951177,1.64923077 L416.688183,1.64923077 L430.466377,36.9230769 Z M407.887451,23.8276923 L420.751909,23.8276923 L415.341623,9.47692308 C414.988951,8.5907648 414.644299,7.48308357 414.307657,6.15384615 C414.131321,6.82667003 413.958995,7.44615102 413.790674,8.01230769 C413.622353,8.57846437 413.458043,9.07486966 413.297737,9.50153846 L407.887451,23.8276923 Z M450.183863,33.4523077 C451.113635,33.4523077 451.967249,33.4071799 452.744731,33.3169231 C453.522213,33.2266662 454.2556,33.091283 454.944914,32.9107692 C455.634228,32.7302555 456.283456,32.5128218 456.892617,32.2584615 C457.501778,32.0041013 458.11093,31.7128222 458.720091,31.3846154 L458.720091,23.6061538 L453.381943,23.6061538 C453.077362,23.6061538 452.8329,23.5158983 452.648549,23.3353846 C452.464197,23.1548709 452.372023,22.9333346 452.372023,22.6707692 L452.372023,19.9630769 L462.952137,19.9630769 L462.952137,33.5015385 C462.086487,34.1415417 461.184782,34.6994848 460.246994,35.1753846 C459.309207,35.6512844 458.307312,36.0492292 457.24128,36.3692308 C456.175248,36.6892324 455.033088,36.9271787 453.814766,37.0830769 C452.596443,37.2389751 451.273942,37.3169231 449.847223,37.3169231 C447.346456,37.3169231 445.054121,36.8779531 442.970149,36 C440.886176,35.1220469 439.090781,33.89129 437.583909,32.3076923 C436.077036,30.7240946 434.902816,28.8246265 434.061211,26.6092308 C433.219607,24.3938351 432.798811,21.9569364 432.798811,19.2984615 C432.798811,16.607166 433.211592,14.1538572 434.037166,11.9384615 C434.862739,9.72306585 436.040968,7.82359766 437.571886,6.24 C439.102804,4.65640234 440.954305,3.42974794 443.126446,2.56 C445.298586,1.69025206 447.731187,1.25538462 450.42432,1.25538462 C451.786917,1.25538462 453.053312,1.35794769 454.223543,1.56307692 C455.393773,1.76820615 456.479827,2.06358782 457.481737,2.44923077 C458.483647,2.83487372 459.409398,3.30256135 460.259017,3.85230769 C461.108637,4.40205403 461.902137,5.02153502 462.639543,5.71076923 L461.317029,7.87692308 C461.044509,8.32000222 460.691842,8.54153846 460.259017,8.54153846 C460.002528,8.54153846 459.721998,8.45128295 459.417417,8.27076923 C459.016653,8.04102449 458.567804,7.76205292 458.070857,7.43384615 C457.57391,7.10563938 456.968765,6.78974511 456.255406,6.48615385 C455.542046,6.18256258 454.700454,5.92410363 453.730606,5.71076923 C452.760757,5.49743483 451.610582,5.39076923 450.280046,5.39076923 C448.340348,5.39076923 446.585029,5.71486855 445.014034,6.36307692 C443.44304,7.01128529 442.104508,7.93845551 440.9984,9.14461538 C439.892292,10.3507753 439.042685,11.8112735 438.449554,13.5261538 C437.856424,15.2410342 437.559863,17.1651175 437.559863,19.2984615 C437.559863,21.5302676 437.868446,23.5199913 438.485623,25.2676923 C439.102799,27.0153934 439.972444,28.4964042 441.094583,29.7107692 C442.216722,30.9251343 443.547238,31.8523045 445.086171,32.4923077 C446.625105,33.1323109 448.324318,33.4523077 450.183863,33.4523077 Z M491.350126,1.64923077 L491.350126,5.53846154 L474.806674,5.53846154 L474.806674,17.2553846 L488.200137,17.2553846 L488.200137,20.9969231 L474.806674,20.9969231 L474.806674,33.0338462 L491.350126,33.0338462 L491.350126,36.9230769 L470.11776,36.9230769 L470.11776,1.64923077 L491.350126,1.64923077 Z M503.180617,22.2030769 L503.180617,36.9230769 L498.539794,36.9230769 L498.539794,1.64923077 L508.278309,1.64923077 C510.458464,1.64923077 512.342026,1.87486954 513.929051,2.32615385 C515.516077,2.77743815 516.826555,3.42973932 517.860526,4.28307692 C518.894497,5.13641452 519.659944,6.16614782 520.156891,7.37230769 C520.653839,8.57846757 520.902309,9.92819766 520.902309,11.4215385 C520.902309,12.6687242 520.709945,13.8338407 520.325211,14.9169231 C519.940478,16.0000054 519.383425,16.9723034 518.654034,17.8338462 C517.924644,18.6953889 517.034961,19.4297406 515.98496,20.0369231 C514.934959,20.6441056 513.744708,21.1035882 512.414171,21.4153846 C512.991271,21.7600017 513.504242,22.2605095 513.953097,22.9169231 L524.004206,36.9230769 L519.868343,36.9230769 C519.018723,36.9230769 518.393541,36.58667 517.992777,35.9138462 L509.047771,23.3107692 C508.775252,22.9169211 508.478691,22.633847 508.15808,22.4615385 C507.837469,22.2892299 507.356559,22.2030769 506.715337,22.2030769 L503.180617,22.2030769 Z M503.180617,18.7323077 L508.061897,18.7323077 C509.424494,18.7323077 510.622761,18.5641042 511.656731,18.2276923 C512.690702,17.8912804 513.556339,17.4153877 514.253669,16.8 C514.950998,16.1846123 515.475991,15.4502607 515.828663,14.5969231 C516.181335,13.7435855 516.357669,12.8000052 516.357669,11.7661538 C516.357669,9.66563052 515.680388,8.08205662 514.325806,7.01538462 C512.971224,5.94871262 510.955411,5.41538462 508.278309,5.41538462 L503.180617,5.41538462 L503.180617,18.7323077 Z" id="TASKMANAGER" fill="#000000"></path>
        </g>
    </g>
</svg>