<?xml version="1.0" encoding="UTF-8"?>
<svg width="48px" height="48px" viewBox="0 0 48 48" version="1.1" xmlns="http://www.w3.org/2000/svg" xmlns:xlink="http://www.w3.org/1999/xlink">
    <!-- Generator: Sketch 56.3 (81716) - https://sketch.com -->
    <title>03 Communication/User Check</title>
    <desc>Created with Sketch.</desc>
    <g id="03-Communication/User-Check" stroke="none" stroke-width="1" fill="none" fill-rule="evenodd">
        <path d="M25.0107524,41.9943536 C25.5630021,41.98813 26.0157342,42.4307715 26.0219578,42.9830212 C26.0281814,43.5352709 25.5855398,43.988003 25.0332901,43.9942266 C24.6917397,43.9980757 24.3473098,44 24,44 C17.3401089,44 11.7338876,43.2925446 7.1770045,41.8692321 C5.27118447,41.2739617 4.09619006,39.3644642 4.42375716,37.3948961 L5.26747009,32.3219048 C5.79177032,29.1694362 8.38456992,26.7723003 11.5684176,26.4964523 C15.3897479,26.1653828 19.5334688,26 24,26 C24.3562785,26 24.7105008,26.0010523 25.0626671,26.003157 C25.614942,26.0064576 26.0599736,26.4568405 26.0566912,27.0091154 C26.0533724,27.5613902 25.6029894,28.0064218 25.0507146,28.0031212 C24.7025441,28.0010404 24.3523059,28 24,28 C19.5890608,28 15.5026028,28.1630974 11.741048,28.4889881 C9.46687125,28.6860223 7.61487073,30.398263 7.24037052,32.6500266 L6.39665759,37.7230179 C6.23287397,38.7078023 6.82037155,39.6625517 7.77328217,39.9601871 C12.1180983,41.3172618 17.5284482,42 24,42 C24.3398286,42 24.6767463,41.9981177 25.0107524,41.9943536 Z M16,12 C16,16.4189747 19.5813257,20 24,20 C28.4189747,20 32,16.4186743 32,12 C32,7.58102534 28.4186743,4 24,4 C19.5810253,4 16,7.58132574 16,12 Z M14,12 C14,6.47679379 18.4764183,2 24,2 C29.5232062,2 34,6.47641829 34,12 C34,17.5232062 29.5235817,22 24,22 C18.4767938,22 14,17.5235817 14,12 Z M28,35 C28,39.9713389 32.028999,44 37,44 C41.9713389,44 46,39.971001 46,35 C46,30.0286611 41.971001,26 37,26 C32.0286611,26 28,30.028999 28,35 Z M26,35 C26,28.9244671 30.924054,24 37,24 C43.0755329,24 48,28.924054 48,35 C48,41.0755329 43.075946,46 37,46 C30.9244671,46 26,41.075946 26,35 Z M35.2928932,36.2928932 L40.2928932,31.2928932 C41.2357023,30.3500842 42.6499158,31.7642977 41.7071068,32.7071068 L36.7071068,37.7071068 C35.7642977,38.6499158 34.3500842,37.2357023 35.2928932,36.2928932 Z M35.2928932,37.7071068 L32.2928932,34.7071068 C31.3500842,33.7642977 32.7642977,32.3500842 33.7071068,33.2928932 L36.7071068,36.2928932 C37.6499158,37.2357023 36.2357023,38.6499158 35.2928932,37.7071068 Z" id="User-Check" fill="#292F48" fill-rule="nonzero"></path>
    </g>
</svg>